%TF.GenerationSoftware,KiCad,Pcbnew,(6.0.5-0)*%
%TF.CreationDate,2022-09-18T01:29:25-07:00*%
%TF.ProjectId,Seed Test 01.01,53656564-2054-4657-9374-2030312e3031,rev?*%
%TF.SameCoordinates,Original*%
%TF.FileFunction,Paste,Top*%
%TF.FilePolarity,Positive*%
%FSLAX46Y46*%
G04 Gerber Fmt 4.6, Leading zero omitted, Abs format (unit mm)*
G04 Created by KiCad (PCBNEW (6.0.5-0)) date 2022-09-18 01:29:25*
%MOMM*%
%LPD*%
G01*
G04 APERTURE LIST*
G04 Aperture macros list*
%AMRoundRect*
0 Rectangle with rounded corners*
0 $1 Rounding radius*
0 $2 $3 $4 $5 $6 $7 $8 $9 X,Y pos of 4 corners*
0 Add a 4 corners polygon primitive as box body*
4,1,4,$2,$3,$4,$5,$6,$7,$8,$9,$2,$3,0*
0 Add four circle primitives for the rounded corners*
1,1,$1+$1,$2,$3*
1,1,$1+$1,$4,$5*
1,1,$1+$1,$6,$7*
1,1,$1+$1,$8,$9*
0 Add four rect primitives between the rounded corners*
20,1,$1+$1,$2,$3,$4,$5,0*
20,1,$1+$1,$4,$5,$6,$7,0*
20,1,$1+$1,$6,$7,$8,$9,0*
20,1,$1+$1,$8,$9,$2,$3,0*%
G04 Aperture macros list end*
%ADD10RoundRect,0.250000X-0.475000X0.250000X-0.475000X-0.250000X0.475000X-0.250000X0.475000X0.250000X0*%
%ADD11RoundRect,0.250000X-0.450000X0.262500X-0.450000X-0.262500X0.450000X-0.262500X0.450000X0.262500X0*%
%ADD12RoundRect,0.250000X0.450000X-0.262500X0.450000X0.262500X-0.450000X0.262500X-0.450000X-0.262500X0*%
%ADD13RoundRect,0.250000X0.262500X0.450000X-0.262500X0.450000X-0.262500X-0.450000X0.262500X-0.450000X0*%
%ADD14RoundRect,0.250000X0.250000X0.475000X-0.250000X0.475000X-0.250000X-0.475000X0.250000X-0.475000X0*%
%ADD15RoundRect,0.150000X0.150000X-0.825000X0.150000X0.825000X-0.150000X0.825000X-0.150000X-0.825000X0*%
%ADD16RoundRect,0.250000X-0.250000X-0.475000X0.250000X-0.475000X0.250000X0.475000X-0.250000X0.475000X0*%
%ADD17RoundRect,0.250000X-0.262500X-0.450000X0.262500X-0.450000X0.262500X0.450000X-0.262500X0.450000X0*%
%ADD18RoundRect,0.250000X0.475000X-0.250000X0.475000X0.250000X-0.475000X0.250000X-0.475000X-0.250000X0*%
%ADD19R,0.800000X1.000000*%
%ADD20R,0.800000X1.500000*%
%ADD21R,1.450000X2.000000*%
%ADD22RoundRect,0.150000X-0.150000X0.587500X-0.150000X-0.587500X0.150000X-0.587500X0.150000X0.587500X0*%
%ADD23RoundRect,0.150000X0.150000X-0.512500X0.150000X0.512500X-0.150000X0.512500X-0.150000X-0.512500X0*%
%ADD24RoundRect,0.218750X-0.381250X0.218750X-0.381250X-0.218750X0.381250X-0.218750X0.381250X0.218750X0*%
%ADD25RoundRect,0.250000X-1.250000X-0.550000X1.250000X-0.550000X1.250000X0.550000X-1.250000X0.550000X0*%
%ADD26RoundRect,0.100000X0.100000X-0.637500X0.100000X0.637500X-0.100000X0.637500X-0.100000X-0.637500X0*%
%ADD27R,2.000000X1.500000*%
%ADD28R,2.000000X3.800000*%
%ADD29RoundRect,0.250000X-0.550000X1.250000X-0.550000X-1.250000X0.550000X-1.250000X0.550000X1.250000X0*%
%ADD30RoundRect,0.150000X0.150000X-0.587500X0.150000X0.587500X-0.150000X0.587500X-0.150000X-0.587500X0*%
%ADD31RoundRect,0.150000X-0.825000X-0.150000X0.825000X-0.150000X0.825000X0.150000X-0.825000X0.150000X0*%
%ADD32RoundRect,0.250000X0.550000X-1.250000X0.550000X1.250000X-0.550000X1.250000X-0.550000X-1.250000X0*%
%ADD33R,3.000000X2.000000*%
G04 APERTURE END LIST*
D10*
%TO.C,C17*%
X109163000Y-135302500D03*
X109163000Y-137202500D03*
%TD*%
D11*
%TO.C,R32*%
X128629000Y-97798436D03*
X128629000Y-99623436D03*
%TD*%
D12*
%TO.C,R14*%
X113735000Y-137165000D03*
X113735000Y-135340000D03*
%TD*%
D13*
%TO.C,R53*%
X169446500Y-116210000D03*
X167621500Y-116210000D03*
%TD*%
D14*
%TO.C,C3*%
X147132000Y-131450000D03*
X145232000Y-131450000D03*
%TD*%
D15*
%TO.C,U1*%
X162819000Y-138370000D03*
X164089000Y-138370000D03*
X165359000Y-138370000D03*
X166629000Y-138370000D03*
X166629000Y-133420000D03*
X165359000Y-133420000D03*
X164089000Y-133420000D03*
X162819000Y-133420000D03*
%TD*%
D16*
%TO.C,C8*%
X111931000Y-50069936D03*
X113831000Y-50069936D03*
%TD*%
D15*
%TO.C,U7*%
X160279000Y-112335000D03*
X161549000Y-112335000D03*
X162819000Y-112335000D03*
X164089000Y-112335000D03*
X165359000Y-112335000D03*
X166629000Y-112335000D03*
X167899000Y-112335000D03*
X167899000Y-107385000D03*
X166629000Y-107385000D03*
X165359000Y-107385000D03*
X164089000Y-107385000D03*
X162819000Y-107385000D03*
X161549000Y-107385000D03*
X160279000Y-107385000D03*
%TD*%
D17*
%TO.C,R30*%
X159493500Y-83444000D03*
X161318500Y-83444000D03*
%TD*%
D16*
%TO.C,C36*%
X167584000Y-120655000D03*
X169484000Y-120655000D03*
%TD*%
D12*
%TO.C,R61*%
X155553000Y-91518936D03*
X155553000Y-89693936D03*
%TD*%
D11*
%TO.C,R13*%
X135260000Y-135236500D03*
X135260000Y-137061500D03*
%TD*%
D18*
%TO.C,C18*%
X130815000Y-129733000D03*
X130815000Y-127833000D03*
%TD*%
D17*
%TO.C,R20*%
X176892500Y-66680000D03*
X178717500Y-66680000D03*
%TD*%
D19*
%TO.C,D1*%
X72395000Y-133890000D03*
X74935000Y-133890000D03*
X74935000Y-127740000D03*
X72395000Y-127740000D03*
%TD*%
D14*
%TO.C,C37*%
X164851000Y-83444000D03*
X162951000Y-83444000D03*
%TD*%
D17*
%TO.C,R59*%
X221342500Y-103080500D03*
X223167500Y-103080500D03*
%TD*%
D11*
%TO.C,R38*%
X120655000Y-89897500D03*
X120655000Y-91722500D03*
%TD*%
D16*
%TO.C,C38*%
X162946000Y-70744000D03*
X164846000Y-70744000D03*
%TD*%
D11*
%TO.C,R48*%
X133963000Y-93861436D03*
X133963000Y-95686436D03*
%TD*%
D16*
%TO.C,C32*%
X167584000Y-99065000D03*
X169484000Y-99065000D03*
%TD*%
D13*
%TO.C,R51*%
X187734500Y-98921000D03*
X185909500Y-98921000D03*
%TD*%
D12*
%TO.C,R25*%
X200919000Y-63186000D03*
X200919000Y-61361000D03*
%TD*%
D10*
%TO.C,C21*%
X107955000Y-93670000D03*
X107955000Y-95570000D03*
%TD*%
D11*
%TO.C,R57*%
X138343000Y-90328936D03*
X138343000Y-92153936D03*
%TD*%
D13*
%TO.C,R55*%
X171351500Y-124999936D03*
X169526500Y-124999936D03*
%TD*%
D14*
%TO.C,C34*%
X161356000Y-66299000D03*
X159456000Y-66299000D03*
%TD*%
%TO.C,C35*%
X161864000Y-99065000D03*
X159964000Y-99065000D03*
%TD*%
D13*
%TO.C,R24*%
X164823700Y-66299000D03*
X162998700Y-66299000D03*
%TD*%
D11*
%TO.C,R60*%
X221493000Y-111233500D03*
X221493000Y-113058500D03*
%TD*%
D10*
%TO.C,C31*%
X103510000Y-97480000D03*
X103510000Y-99380000D03*
%TD*%
D13*
%TO.C,R50*%
X165636500Y-120655000D03*
X163811500Y-120655000D03*
%TD*%
D20*
%TO.C,J3*%
X144125000Y-51160000D03*
X145225000Y-51160000D03*
X146325000Y-51160000D03*
X147425000Y-51160000D03*
X148525000Y-51160000D03*
X149625000Y-51160000D03*
X150725000Y-51160000D03*
X151825000Y-51160000D03*
D21*
X140450000Y-48560000D03*
X154200000Y-56860000D03*
X154200000Y-48560000D03*
X140450000Y-56860000D03*
%TD*%
D12*
%TO.C,R7*%
X167491000Y-63047436D03*
X167491000Y-61222436D03*
%TD*%
D22*
%TO.C,Q1*%
X223205000Y-106207000D03*
X221305000Y-106207000D03*
X222255000Y-108082000D03*
%TD*%
D17*
%TO.C,R45*%
X160001500Y-116210000D03*
X161826500Y-116210000D03*
%TD*%
D11*
%TO.C,R16*%
X104780000Y-127720000D03*
X104780000Y-129545000D03*
%TD*%
D23*
%TO.C,U2*%
X86685000Y-52577500D03*
X87635000Y-52577500D03*
X88585000Y-52577500D03*
X88585000Y-50302500D03*
X86685000Y-50302500D03*
%TD*%
D18*
%TO.C,C19*%
X113670000Y-133350000D03*
X113670000Y-131450000D03*
%TD*%
D24*
%TO.C,L1*%
X84460000Y-132292500D03*
X84460000Y-134417500D03*
%TD*%
D13*
%TO.C,R43*%
X161826500Y-125100000D03*
X160001500Y-125100000D03*
%TD*%
D12*
%TO.C,R40*%
X184763000Y-138612436D03*
X184763000Y-136787436D03*
%TD*%
D18*
%TO.C,C29*%
X103510000Y-91760000D03*
X103510000Y-89860000D03*
%TD*%
D11*
%TO.C,R42*%
X169042000Y-128759500D03*
X169042000Y-130584500D03*
%TD*%
D17*
%TO.C,R26*%
X206102500Y-66426000D03*
X207927500Y-66426000D03*
%TD*%
D11*
%TO.C,R10*%
X113670000Y-127720000D03*
X113670000Y-129545000D03*
%TD*%
D17*
%TO.C,R9*%
X202292500Y-114940000D03*
X204117500Y-114940000D03*
%TD*%
D12*
%TO.C,R37*%
X99065000Y-95810000D03*
X99065000Y-93985000D03*
%TD*%
D25*
%TO.C,C5*%
X87340000Y-59060000D03*
X91740000Y-59060000D03*
%TD*%
D10*
%TO.C,C39*%
X151043000Y-89698936D03*
X151043000Y-91598936D03*
%TD*%
D12*
%TO.C,R56*%
X187823000Y-94777000D03*
X187823000Y-92952000D03*
%TD*%
D26*
%TO.C,U8*%
X161631000Y-79956500D03*
X162281000Y-79956500D03*
X162931000Y-79956500D03*
X163581000Y-79956500D03*
X164231000Y-79956500D03*
X164881000Y-79956500D03*
X165531000Y-79956500D03*
X165531000Y-74231500D03*
X164881000Y-74231500D03*
X164231000Y-74231500D03*
X163581000Y-74231500D03*
X162931000Y-74231500D03*
X162281000Y-74231500D03*
X161631000Y-74231500D03*
%TD*%
D27*
%TO.C,U3*%
X94010000Y-127880000D03*
X94010000Y-130180000D03*
X94010000Y-132480000D03*
D28*
X100310000Y-130180000D03*
%TD*%
D29*
%TO.C,C7*%
X73665000Y-119725000D03*
X73665000Y-124125000D03*
%TD*%
D10*
%TO.C,C1*%
X98303000Y-120406000D03*
X98303000Y-122306000D03*
%TD*%
D17*
%TO.C,R49*%
X163811500Y-99065000D03*
X165636500Y-99065000D03*
%TD*%
D18*
%TO.C,C30*%
X125100000Y-91760000D03*
X125100000Y-89860000D03*
%TD*%
D11*
%TO.C,R33*%
X103510000Y-93707500D03*
X103510000Y-95532500D03*
%TD*%
D30*
%TO.C,U4*%
X166163500Y-56822500D03*
X168063500Y-56822500D03*
X167113500Y-54947500D03*
%TD*%
D13*
%TO.C,R54*%
X161826500Y-93985000D03*
X160001500Y-93985000D03*
%TD*%
D18*
%TO.C,C41*%
X133898000Y-92191436D03*
X133898000Y-90291436D03*
%TD*%
D13*
%TO.C,R46*%
X168303500Y-66299000D03*
X166478500Y-66299000D03*
%TD*%
D12*
%TO.C,R39*%
X107955000Y-99342500D03*
X107955000Y-97517500D03*
%TD*%
%TO.C,R41*%
X170920000Y-138966500D03*
X170920000Y-137141500D03*
%TD*%
D13*
%TO.C,R44*%
X169446500Y-103510000D03*
X167621500Y-103510000D03*
%TD*%
D14*
%TO.C,C33*%
X161864000Y-120655000D03*
X159964000Y-120655000D03*
%TD*%
D17*
%TO.C,R47*%
X159493500Y-70744000D03*
X161318500Y-70744000D03*
%TD*%
%TO.C,R23*%
X191624500Y-67188000D03*
X193449500Y-67188000D03*
%TD*%
D31*
%TO.C,U6*%
X111830000Y-90175000D03*
X111830000Y-91445000D03*
X111830000Y-92715000D03*
X111830000Y-93985000D03*
X111830000Y-95255000D03*
X111830000Y-96525000D03*
X111830000Y-97795000D03*
X116780000Y-97795000D03*
X116780000Y-96525000D03*
X116780000Y-95255000D03*
X116780000Y-93985000D03*
X116780000Y-92715000D03*
X116780000Y-91445000D03*
X116780000Y-90175000D03*
%TD*%
D17*
%TO.C,R52*%
X160001500Y-103510000D03*
X161826500Y-103510000D03*
%TD*%
D12*
%TO.C,R11*%
X126370000Y-137061500D03*
X126370000Y-135236500D03*
%TD*%
D16*
%TO.C,C23*%
X163774000Y-116210000D03*
X165674000Y-116210000D03*
%TD*%
D18*
%TO.C,C22*%
X120655000Y-95570000D03*
X120655000Y-93670000D03*
%TD*%
D10*
%TO.C,C9*%
X84460000Y-127960000D03*
X84460000Y-129860000D03*
%TD*%
%TO.C,C4*%
X95890000Y-57790000D03*
X95890000Y-59690000D03*
%TD*%
D12*
%TO.C,R58*%
X226319000Y-103049000D03*
X226319000Y-101224000D03*
%TD*%
D31*
%TO.C,U5*%
X117545000Y-128910000D03*
X117545000Y-130180000D03*
X117545000Y-131450000D03*
X117545000Y-132720000D03*
X117545000Y-133990000D03*
X117545000Y-135260000D03*
X117545000Y-136530000D03*
X122495000Y-136530000D03*
X122495000Y-135260000D03*
X122495000Y-133990000D03*
X122495000Y-132720000D03*
X122495000Y-131450000D03*
X122495000Y-130180000D03*
X122495000Y-128910000D03*
%TD*%
D18*
%TO.C,C40*%
X138343000Y-95681436D03*
X138343000Y-93781436D03*
%TD*%
D14*
%TO.C,C43*%
X165674000Y-129545000D03*
X163774000Y-129545000D03*
%TD*%
D11*
%TO.C,R65*%
X151043000Y-93503936D03*
X151043000Y-95328936D03*
%TD*%
D12*
%TO.C,R22*%
X186695000Y-63082500D03*
X186695000Y-61257500D03*
%TD*%
D10*
%TO.C,C28*%
X125100000Y-97757500D03*
X125100000Y-99657500D03*
%TD*%
D13*
%TO.C,R5*%
X145443500Y-63886000D03*
X143618500Y-63886000D03*
%TD*%
D12*
%TO.C,R19*%
X172471000Y-63082500D03*
X172471000Y-61257500D03*
%TD*%
D31*
%TO.C,U9*%
X142218000Y-90606436D03*
X142218000Y-91876436D03*
X142218000Y-93146436D03*
X142218000Y-94416436D03*
X147168000Y-94416436D03*
X147168000Y-93146436D03*
X147168000Y-91876436D03*
X147168000Y-90606436D03*
%TD*%
D11*
%TO.C,R17*%
X135260000Y-127870500D03*
X135260000Y-129695500D03*
%TD*%
D12*
%TO.C,R64*%
X226065000Y-113058500D03*
X226065000Y-111233500D03*
%TD*%
D32*
%TO.C,C6*%
X82555000Y-124125000D03*
X82555000Y-119725000D03*
%TD*%
D17*
%TO.C,R8*%
X179432500Y-115194000D03*
X181257500Y-115194000D03*
%TD*%
%TO.C,R1*%
X152104000Y-67696000D03*
X153929000Y-67696000D03*
%TD*%
D18*
%TO.C,C20*%
X126370000Y-133392500D03*
X126370000Y-131492500D03*
%TD*%
%TO.C,C42*%
X155488000Y-95403936D03*
X155488000Y-93503936D03*
%TD*%
D14*
%TO.C,C25*%
X161356000Y-88016000D03*
X159456000Y-88016000D03*
%TD*%
D11*
%TO.C,R6*%
X89540000Y-127997500D03*
X89540000Y-129822500D03*
%TD*%
%TO.C,R36*%
X125100000Y-93707500D03*
X125100000Y-95532500D03*
%TD*%
D17*
%TO.C,R29*%
X220223000Y-66426000D03*
X222048000Y-66426000D03*
%TD*%
D16*
%TO.C,C27*%
X166441000Y-70744000D03*
X168341000Y-70744000D03*
%TD*%
D13*
%TO.C,R62*%
X208943500Y-98811000D03*
X207118500Y-98811000D03*
%TD*%
%TO.C,R21*%
X168430500Y-92588000D03*
X166605500Y-92588000D03*
%TD*%
D16*
%TO.C,C2*%
X147706000Y-127132000D03*
X149606000Y-127132000D03*
%TD*%
D13*
%TO.C,R4*%
X141276000Y-67442000D03*
X139451000Y-67442000D03*
%TD*%
D12*
%TO.C,R63*%
X208920000Y-95343500D03*
X208920000Y-93518500D03*
%TD*%
D32*
%TO.C,C13*%
X91445000Y-124125000D03*
X91445000Y-119725000D03*
%TD*%
D16*
%TO.C,C26*%
X166568000Y-88016000D03*
X168468000Y-88016000D03*
%TD*%
D18*
%TO.C,C10*%
X80015000Y-129860000D03*
X80015000Y-127960000D03*
%TD*%
D12*
%TO.C,R12*%
X109163000Y-133355000D03*
X109163000Y-131530000D03*
%TD*%
D13*
%TO.C,R31*%
X168280000Y-83444000D03*
X166455000Y-83444000D03*
%TD*%
D16*
%TO.C,C24*%
X163774000Y-103510000D03*
X165674000Y-103510000D03*
%TD*%
D11*
%TO.C,R15*%
X126370000Y-127870500D03*
X126370000Y-129695500D03*
%TD*%
D29*
%TO.C,C11*%
X95890000Y-49240000D03*
X95890000Y-53640000D03*
%TD*%
D17*
%TO.C,R27*%
X161244500Y-61854000D03*
X163069500Y-61854000D03*
%TD*%
D33*
%TO.C,J18*%
X82467000Y-50343000D03*
X82467000Y-56343000D03*
X71467000Y-56343000D03*
X71467000Y-50343000D03*
%TD*%
D25*
%TO.C,C12*%
X87975000Y-139705000D03*
X92375000Y-139705000D03*
%TD*%
D16*
%TO.C,C14*%
X166163500Y-50805000D03*
X168063500Y-50805000D03*
%TD*%
D11*
%TO.C,R35*%
X107955000Y-89897500D03*
X107955000Y-91722500D03*
%TD*%
D12*
%TO.C,R34*%
X120655000Y-99620000D03*
X120655000Y-97795000D03*
%TD*%
D13*
%TO.C,R3*%
X147579000Y-67696000D03*
X145754000Y-67696000D03*
%TD*%
D12*
%TO.C,R28*%
X215143000Y-63336500D03*
X215143000Y-61511500D03*
%TD*%
D17*
%TO.C,R18*%
X163049500Y-88016000D03*
X164874500Y-88016000D03*
%TD*%
D18*
%TO.C,C15*%
X109290000Y-129582500D03*
X109290000Y-127682500D03*
%TD*%
D10*
%TO.C,C16*%
X130815000Y-135199000D03*
X130815000Y-137099000D03*
%TD*%
D17*
%TO.C,R2*%
X148444500Y-63886000D03*
X150269500Y-63886000D03*
%TD*%
M02*
