M48
; DRILL file {KiCad (6.0.5-0)} date Sunday, September 18, 2022 at 01:29:48 AM
; FORMAT={-:-/ absolute / inch / decimal}
; #@! TF.CreationDate,2022-09-18T01:29:48-07:00
; #@! TF.GenerationSoftware,Kicad,Pcbnew,(6.0.5-0)
; #@! TF.FileFunction,Plated,1,2,PTH
FMAT,2
INCH
; #@! TA.AperFunction,Plated,PTH,ViaDrill
T1C0.0157
; #@! TA.AperFunction,Plated,PTH,ComponentDrill
T2C0.0315
; #@! TA.AperFunction,Plated,PTH,ComponentDrill
T3C0.0394
; #@! TA.AperFunction,Plated,PTH,ComponentDrill
T4C0.0433
; #@! TA.AperFunction,Plated,PTH,ComponentDrill
T5C0.0480
; #@! TA.AperFunction,Plated,PTH,ComponentDrill
T6C0.0559
; #@! TA.AperFunction,Plated,PTH,ComponentDrill
T7C0.0563
; #@! TA.AperFunction,Plated,PTH,ComponentDrill
T8C0.0591
%
G90
G05
T1
X3.1702Y-5.2252
X3.4302Y-4.9478
X3.4352Y-4.6263
X3.5741Y-5.1963
X3.8402Y-4.5163
X3.9502Y-3.6252
X4.0552Y-5.3745
X4.0802Y-4.5563
X4.2502Y-3.4295
X4.3941Y-5.2763
X4.4691Y-3.7113
X4.5191Y-3.6413
X4.7177Y-5.3188
X4.7202Y-5.1263
X4.7627Y-4.5638
X4.8302Y-3.0845
X4.9702Y-3.4295
X5.0102Y-4.5213
X5.0441Y-5.5263
X5.0752Y-3.7245
X5.0952Y-5.5757
X5.0991Y-5.1963
X5.1502Y-5.2473
X5.1652Y-5.5757
X5.2752Y-3.8245
X5.2891Y-3.3913
X5.2966Y-3.4638
X5.3252Y-3.3445
X5.4202Y-3.3445
X5.4252Y-3.9245
X5.4491Y-3.8363
X5.4841Y-2.5263
X5.5075Y-3.6172
X5.5075Y-3.6922
X5.5191Y-4.2913
X5.5191Y-4.3763
X5.524Y-3.8745
X5.5391Y-3.5098
X5.5641Y-4.5348
X5.5702Y-4.0545
X5.5802Y-4.2495
X5.6141Y-4.366
X5.6591Y-2.6763
X5.6742Y-2.1162
X5.7175Y-2.1546
X5.7202Y-3.7045
X5.7252Y-3.8495
X5.7377Y-3.637
X5.7591Y-2.2113
X5.8041Y-2.2613
X5.8391Y-3.4848
X5.8813Y-3.5926
X5.9341Y-2.4495
X5.9502Y-3.8495
X5.9741Y-2.2163
X6.0141Y-3.4848
X6.0252Y-2.3245
X6.0252Y-3.5995
X6.1058Y-3.3882
X6.1252Y-3.4745
X6.1252Y-3.8745
X6.1391Y-3.4348
X6.1702Y-3.2695
X6.2002Y-4.1995
X6.2002Y-4.3745
X6.2002Y-4.6995
X6.2352Y-4.8552
X6.2465Y-5.0495
X6.2752Y-3.5995
X6.2752Y-5.2995
X6.3502Y-5.0495
X6.4091Y-5.5313
X6.4141Y-4.8413
X6.4252Y-2.6995
X6.4398Y-4.3606
X6.4427Y-3.3727
X6.4502Y-2.1745
X6.4502Y-2.2745
X6.4756Y-3.6095
X6.4937Y-4.2917
X6.4952Y-3.0095
X6.4966Y-2.4938
X6.5002Y-3.3745
X6.5391Y-3.5348
X6.5391Y-4.3348
X6.5502Y-2.3345
X6.5752Y-4.9745
X6.6252Y-3.1795
X6.6641Y-2.7098
X6.7107Y-2.3341
X8.6002Y-5.5245
X8.9002Y-4.5495
T2
X4.025Y-4.175
X4.025Y-4.775
X4.125Y-4.175
X4.125Y-4.775
X4.225Y-4.175
X4.225Y-4.775
X4.325Y-4.175
X4.325Y-4.775
X4.425Y-4.175
X4.425Y-4.775
X4.525Y-4.175
X4.525Y-4.775
X4.625Y-4.175
X4.625Y-4.775
X4.725Y-4.175
X4.725Y-4.775
X4.825Y-4.175
X4.825Y-4.775
X4.925Y-4.175
X4.925Y-4.775
X5.025Y-4.175
X5.025Y-4.775
X5.125Y-4.175
X5.125Y-4.775
X5.225Y-4.175
X5.225Y-4.775
X5.325Y-4.175
X5.325Y-4.775
X5.425Y-4.175
X5.425Y-4.775
X5.525Y-4.175
X5.525Y-4.775
X5.625Y-4.175
X5.625Y-4.775
X5.725Y-4.175
X5.725Y-4.775
X5.825Y-4.175
X5.825Y-4.775
X5.925Y-4.175
X5.925Y-4.775
X7.2946Y-3.432
X7.3946Y-3.532
X7.4946Y-3.432
X8.1246Y-3.432
X8.2246Y-3.532
X8.3246Y-3.432
T3
X2.8486Y-3.9744
X2.8502Y-5.4502
X2.8502Y-5.5502
X2.9502Y-5.4502
X2.9502Y-5.5502
X3.0502Y-5.4502
X3.0502Y-5.5502
X3.1502Y-3.1752
X3.1502Y-5.4502
X3.1502Y-5.5502
X3.2502Y-3.9744
X3.2502Y-5.4502
X3.2502Y-5.5502
X3.351Y-3.1752
X3.6518Y-3.9744
X4.4002Y-2.1752
X4.5002Y-2.1752
X4.6002Y-2.1752
X4.7002Y-2.1752
X4.8002Y-2.1752
X4.9002Y-2.1752
X5.0002Y-2.1752
X5.6768Y-2.8098
X5.6768Y-3.3806
X5.7752Y-3.3806
X5.8736Y-2.8098
X5.8736Y-3.3806
X6.9433Y-2.7576
X7.0418Y-2.7576
X7.1402Y-2.7576
X7.5133Y-2.7576
X7.6118Y-2.7576
X7.7102Y-2.7576
X8.0833Y-2.7576
X8.1818Y-2.7576
X8.2802Y-2.7576
X8.6533Y-2.7576
X8.7518Y-2.7576
X8.8502Y-2.7576
T5
X6.9802Y-3.4376
X6.9802Y-4.9876
X7.0602Y-1.9676
X7.3702Y-4.0576
X7.5402Y-4.9776
X7.6202Y-1.9576
X7.8102Y-3.4376
X8.1002Y-4.9776
X8.1802Y-1.9576
X8.2702Y-4.0576
X8.6702Y-3.4352
X8.6702Y-4.9776
X8.7402Y-1.9576
T6
X6.9802Y-3.5597
X6.9802Y-5.1097
X7.0602Y-2.0897
X7.3702Y-4.1797
X7.5402Y-5.0997
X7.6202Y-2.0797
X7.8102Y-3.5597
X8.1002Y-5.0997
X8.1802Y-2.0797
X8.2702Y-4.1797
X8.6702Y-3.5572
X8.6702Y-5.0997
X8.7402Y-2.0797
T7
X6.9802Y-3.8865
X6.9802Y-5.4365
X7.0602Y-2.4165
X7.3702Y-4.5065
X7.5402Y-5.4265
X7.6202Y-2.4065
X7.8102Y-3.8865
X8.1002Y-5.4265
X8.1802Y-2.4065
X8.2702Y-4.5065
X8.6702Y-3.884
X8.6702Y-5.4265
X8.7402Y-2.4065
T4
G00X6.8528Y-3.0391
M15
G01X6.8528Y-3.0667
M16
G05
G00X7.2307Y-3.0391
M15
G01X7.2307Y-3.0667
M16
G05
G00X7.4228Y-3.0391
M15
G01X7.4228Y-3.0667
M16
G05
G00X7.8007Y-3.0391
M15
G01X7.8007Y-3.0667
M16
G05
G00X7.9928Y-3.0391
M15
G01X7.9928Y-3.0667
M16
G05
G00X8.3707Y-3.0391
M15
G01X8.3707Y-3.0667
M16
G05
G00X8.5628Y-3.0391
M15
G01X8.5628Y-3.0667
M16
G05
G00X8.9407Y-3.0391
M15
G01X8.9407Y-3.0667
M16
G05
T8
G00X5.5547Y-3.1109
M15
G01X5.5547Y-3.0598
M16
G05
G00X5.9957Y-3.1109
M15
G01X5.9957Y-3.0598
M16
G05
T0
M30
