%TF.GenerationSoftware,KiCad,Pcbnew,(6.0.5-0)*%
%TF.CreationDate,2022-09-18T01:29:25-07:00*%
%TF.ProjectId,Seed Test 01.01,53656564-2054-4657-9374-2030312e3031,rev?*%
%TF.SameCoordinates,Original*%
%TF.FileFunction,Copper,L1,Top*%
%TF.FilePolarity,Positive*%
%FSLAX46Y46*%
G04 Gerber Fmt 4.6, Leading zero omitted, Abs format (unit mm)*
G04 Created by KiCad (PCBNEW (6.0.5-0)) date 2022-09-18 01:29:25*
%MOMM*%
%LPD*%
G01*
G04 APERTURE LIST*
G04 Aperture macros list*
%AMRoundRect*
0 Rectangle with rounded corners*
0 $1 Rounding radius*
0 $2 $3 $4 $5 $6 $7 $8 $9 X,Y pos of 4 corners*
0 Add a 4 corners polygon primitive as box body*
4,1,4,$2,$3,$4,$5,$6,$7,$8,$9,$2,$3,0*
0 Add four circle primitives for the rounded corners*
1,1,$1+$1,$2,$3*
1,1,$1+$1,$4,$5*
1,1,$1+$1,$6,$7*
1,1,$1+$1,$8,$9*
0 Add four rect primitives between the rounded corners*
20,1,$1+$1,$2,$3,$4,$5,0*
20,1,$1+$1,$4,$5,$6,$7,0*
20,1,$1+$1,$6,$7,$8,$9,0*
20,1,$1+$1,$8,$9,$2,$3,0*%
G04 Aperture macros list end*
%TA.AperFunction,NonConductor*%
%ADD10C,0.200000*%
%TD*%
%ADD11C,0.300000*%
%TA.AperFunction,NonConductor*%
%ADD12C,0.300000*%
%TD*%
%TA.AperFunction,SMDPad,CuDef*%
%ADD13RoundRect,0.250000X-0.475000X0.250000X-0.475000X-0.250000X0.475000X-0.250000X0.475000X0.250000X0*%
%TD*%
%TA.AperFunction,SMDPad,CuDef*%
%ADD14RoundRect,0.250000X-0.450000X0.262500X-0.450000X-0.262500X0.450000X-0.262500X0.450000X0.262500X0*%
%TD*%
%TA.AperFunction,SMDPad,CuDef*%
%ADD15RoundRect,0.250000X0.450000X-0.262500X0.450000X0.262500X-0.450000X0.262500X-0.450000X-0.262500X0*%
%TD*%
%TA.AperFunction,SMDPad,CuDef*%
%ADD16RoundRect,0.250000X0.262500X0.450000X-0.262500X0.450000X-0.262500X-0.450000X0.262500X-0.450000X0*%
%TD*%
%TA.AperFunction,SMDPad,CuDef*%
%ADD17RoundRect,0.250000X0.250000X0.475000X-0.250000X0.475000X-0.250000X-0.475000X0.250000X-0.475000X0*%
%TD*%
%TA.AperFunction,SMDPad,CuDef*%
%ADD18RoundRect,0.150000X0.150000X-0.825000X0.150000X0.825000X-0.150000X0.825000X-0.150000X-0.825000X0*%
%TD*%
%TA.AperFunction,SMDPad,CuDef*%
%ADD19RoundRect,0.250000X-0.250000X-0.475000X0.250000X-0.475000X0.250000X0.475000X-0.250000X0.475000X0*%
%TD*%
%TA.AperFunction,SMDPad,CuDef*%
%ADD20RoundRect,0.250000X-0.262500X-0.450000X0.262500X-0.450000X0.262500X0.450000X-0.262500X0.450000X0*%
%TD*%
%TA.AperFunction,ComponentPad*%
%ADD21R,1.700000X1.700000*%
%TD*%
%TA.AperFunction,ComponentPad*%
%ADD22O,1.700000X1.700000*%
%TD*%
%TA.AperFunction,ComponentPad*%
%ADD23C,1.440000*%
%TD*%
%TA.AperFunction,SMDPad,CuDef*%
%ADD24RoundRect,0.250000X0.475000X-0.250000X0.475000X0.250000X-0.475000X0.250000X-0.475000X-0.250000X0*%
%TD*%
%TA.AperFunction,SMDPad,CuDef*%
%ADD25R,0.800000X1.000000*%
%TD*%
%TA.AperFunction,ComponentPad*%
%ADD26R,1.930000X1.830000*%
%TD*%
%TA.AperFunction,ComponentPad*%
%ADD27C,2.130000*%
%TD*%
%TA.AperFunction,ComponentPad*%
%ADD28O,2.720000X3.240000*%
%TD*%
%TA.AperFunction,ComponentPad*%
%ADD29R,1.800000X1.800000*%
%TD*%
%TA.AperFunction,ComponentPad*%
%ADD30C,1.800000*%
%TD*%
%TA.AperFunction,ComponentPad*%
%ADD31R,2.000000X2.000000*%
%TD*%
%TA.AperFunction,ComponentPad*%
%ADD32C,2.000000*%
%TD*%
%TA.AperFunction,ComponentPad*%
%ADD33R,2.000000X3.200000*%
%TD*%
%TA.AperFunction,SMDPad,CuDef*%
%ADD34R,0.800000X1.500000*%
%TD*%
%TA.AperFunction,SMDPad,CuDef*%
%ADD35R,1.450000X2.000000*%
%TD*%
%TA.AperFunction,SMDPad,CuDef*%
%ADD36RoundRect,0.150000X-0.150000X0.587500X-0.150000X-0.587500X0.150000X-0.587500X0.150000X0.587500X0*%
%TD*%
%TA.AperFunction,SMDPad,CuDef*%
%ADD37RoundRect,0.150000X0.150000X-0.512500X0.150000X0.512500X-0.150000X0.512500X-0.150000X-0.512500X0*%
%TD*%
%TA.AperFunction,SMDPad,CuDef*%
%ADD38RoundRect,0.218750X-0.381250X0.218750X-0.381250X-0.218750X0.381250X-0.218750X0.381250X0.218750X0*%
%TD*%
%TA.AperFunction,ComponentPad*%
%ADD39R,1.600000X1.600000*%
%TD*%
%TA.AperFunction,ComponentPad*%
%ADD40O,1.600000X1.600000*%
%TD*%
%TA.AperFunction,SMDPad,CuDef*%
%ADD41RoundRect,0.250000X-1.250000X-0.550000X1.250000X-0.550000X1.250000X0.550000X-1.250000X0.550000X0*%
%TD*%
%TA.AperFunction,SMDPad,CuDef*%
%ADD42RoundRect,0.100000X0.100000X-0.637500X0.100000X0.637500X-0.100000X0.637500X-0.100000X-0.637500X0*%
%TD*%
%TA.AperFunction,SMDPad,CuDef*%
%ADD43R,2.000000X1.500000*%
%TD*%
%TA.AperFunction,SMDPad,CuDef*%
%ADD44R,2.000000X3.800000*%
%TD*%
%TA.AperFunction,SMDPad,CuDef*%
%ADD45RoundRect,0.250000X-0.550000X1.250000X-0.550000X-1.250000X0.550000X-1.250000X0.550000X1.250000X0*%
%TD*%
%TA.AperFunction,SMDPad,CuDef*%
%ADD46RoundRect,0.150000X0.150000X-0.587500X0.150000X0.587500X-0.150000X0.587500X-0.150000X-0.587500X0*%
%TD*%
%TA.AperFunction,SMDPad,CuDef*%
%ADD47RoundRect,0.150000X-0.825000X-0.150000X0.825000X-0.150000X0.825000X0.150000X-0.825000X0.150000X0*%
%TD*%
%TA.AperFunction,SMDPad,CuDef*%
%ADD48RoundRect,0.250000X0.550000X-1.250000X0.550000X1.250000X-0.550000X1.250000X-0.550000X-1.250000X0*%
%TD*%
%TA.AperFunction,ComponentPad*%
%ADD49R,1.500000X1.500000*%
%TD*%
%TA.AperFunction,ComponentPad*%
%ADD50C,1.500000*%
%TD*%
%TA.AperFunction,SMDPad,CuDef*%
%ADD51R,3.000000X2.000000*%
%TD*%
%TA.AperFunction,ViaPad*%
%ADD52C,0.800000*%
%TD*%
%TA.AperFunction,Conductor*%
%ADD53C,0.250000*%
%TD*%
%TA.AperFunction,Conductor*%
%ADD54C,0.500000*%
%TD*%
%TA.AperFunction,Conductor*%
%ADD55C,1.000000*%
%TD*%
G04 APERTURE END LIST*
D10*
X230591000Y-144660500D02*
X69047000Y-144660500D01*
X69047000Y-144660500D02*
X69047000Y-44965500D01*
X69047000Y-44965500D02*
X230591000Y-44965500D01*
X230591000Y-44965500D02*
X230591000Y-144660500D01*
D11*
D12*
X202954285Y-122368571D02*
X203240000Y-122368571D01*
X203382857Y-122440000D01*
X203525714Y-122582857D01*
X203597142Y-122868571D01*
X203597142Y-123368571D01*
X203525714Y-123654285D01*
X203382857Y-123797142D01*
X203240000Y-123868571D01*
X202954285Y-123868571D01*
X202811428Y-123797142D01*
X202668571Y-123654285D01*
X202597142Y-123368571D01*
X202597142Y-122868571D01*
X202668571Y-122582857D01*
X202811428Y-122440000D01*
X202954285Y-122368571D01*
X204240000Y-122368571D02*
X204240000Y-123582857D01*
X204311428Y-123725714D01*
X204382857Y-123797142D01*
X204525714Y-123868571D01*
X204811428Y-123868571D01*
X204954285Y-123797142D01*
X205025714Y-123725714D01*
X205097142Y-123582857D01*
X205097142Y-122368571D01*
X205597142Y-122368571D02*
X206454285Y-122368571D01*
X206025714Y-123868571D02*
X206025714Y-122368571D01*
X207954285Y-122368571D02*
X208882857Y-122368571D01*
X208382857Y-122940000D01*
X208597142Y-122940000D01*
X208740000Y-123011428D01*
X208811428Y-123082857D01*
X208882857Y-123225714D01*
X208882857Y-123582857D01*
X208811428Y-123725714D01*
X208740000Y-123797142D01*
X208597142Y-123868571D01*
X208168571Y-123868571D01*
X208025714Y-123797142D01*
X207954285Y-123725714D01*
D11*
D12*
X181289285Y-118360000D02*
X182003571Y-118360000D01*
X181146428Y-118788571D02*
X181646428Y-117288571D01*
X182146428Y-118788571D01*
X182646428Y-117288571D02*
X182646428Y-118502857D01*
X182717857Y-118645714D01*
X182789285Y-118717142D01*
X182932142Y-118788571D01*
X183217857Y-118788571D01*
X183360714Y-118717142D01*
X183432142Y-118645714D01*
X183503571Y-118502857D01*
X183503571Y-117288571D01*
X184217857Y-118788571D02*
X184217857Y-117288571D01*
X184575000Y-117288571D01*
X184789285Y-117360000D01*
X184932142Y-117502857D01*
X185003571Y-117645714D01*
X185075000Y-117931428D01*
X185075000Y-118145714D01*
X185003571Y-118431428D01*
X184932142Y-118574285D01*
X184789285Y-118717142D01*
X184575000Y-118788571D01*
X184217857Y-118788571D01*
X185717857Y-118788571D02*
X185717857Y-117288571D01*
X186717857Y-117288571D02*
X187003571Y-117288571D01*
X187146428Y-117360000D01*
X187289285Y-117502857D01*
X187360714Y-117788571D01*
X187360714Y-118288571D01*
X187289285Y-118574285D01*
X187146428Y-118717142D01*
X187003571Y-118788571D01*
X186717857Y-118788571D01*
X186575000Y-118717142D01*
X186432142Y-118574285D01*
X186360714Y-118288571D01*
X186360714Y-117788571D01*
X186432142Y-117502857D01*
X186575000Y-117360000D01*
X186717857Y-117288571D01*
X189146428Y-118788571D02*
X189146428Y-117288571D01*
X189860714Y-118788571D02*
X189860714Y-117288571D01*
X190717857Y-118788571D01*
X190717857Y-117288571D01*
X193360714Y-118788571D02*
X192503571Y-118788571D01*
X192932142Y-118788571D02*
X192932142Y-117288571D01*
X192789285Y-117502857D01*
X192646428Y-117645714D01*
X192503571Y-117717142D01*
D11*
D12*
X204149285Y-118360000D02*
X204863571Y-118360000D01*
X204006428Y-118788571D02*
X204506428Y-117288571D01*
X205006428Y-118788571D01*
X205506428Y-117288571D02*
X205506428Y-118502857D01*
X205577857Y-118645714D01*
X205649285Y-118717142D01*
X205792142Y-118788571D01*
X206077857Y-118788571D01*
X206220714Y-118717142D01*
X206292142Y-118645714D01*
X206363571Y-118502857D01*
X206363571Y-117288571D01*
X207077857Y-118788571D02*
X207077857Y-117288571D01*
X207435000Y-117288571D01*
X207649285Y-117360000D01*
X207792142Y-117502857D01*
X207863571Y-117645714D01*
X207935000Y-117931428D01*
X207935000Y-118145714D01*
X207863571Y-118431428D01*
X207792142Y-118574285D01*
X207649285Y-118717142D01*
X207435000Y-118788571D01*
X207077857Y-118788571D01*
X208577857Y-118788571D02*
X208577857Y-117288571D01*
X209577857Y-117288571D02*
X209863571Y-117288571D01*
X210006428Y-117360000D01*
X210149285Y-117502857D01*
X210220714Y-117788571D01*
X210220714Y-118288571D01*
X210149285Y-118574285D01*
X210006428Y-118717142D01*
X209863571Y-118788571D01*
X209577857Y-118788571D01*
X209435000Y-118717142D01*
X209292142Y-118574285D01*
X209220714Y-118288571D01*
X209220714Y-117788571D01*
X209292142Y-117502857D01*
X209435000Y-117360000D01*
X209577857Y-117288571D01*
X212006428Y-118788571D02*
X212006428Y-117288571D01*
X212720714Y-118788571D02*
X212720714Y-117288571D01*
X213577857Y-118788571D01*
X213577857Y-117288571D01*
X215363571Y-117431428D02*
X215435000Y-117360000D01*
X215577857Y-117288571D01*
X215935000Y-117288571D01*
X216077857Y-117360000D01*
X216149285Y-117431428D01*
X216220714Y-117574285D01*
X216220714Y-117717142D01*
X216149285Y-117931428D01*
X215292142Y-118788571D01*
X216220714Y-118788571D01*
D11*
D12*
X217559285Y-122368571D02*
X217845000Y-122368571D01*
X217987857Y-122440000D01*
X218130714Y-122582857D01*
X218202142Y-122868571D01*
X218202142Y-123368571D01*
X218130714Y-123654285D01*
X217987857Y-123797142D01*
X217845000Y-123868571D01*
X217559285Y-123868571D01*
X217416428Y-123797142D01*
X217273571Y-123654285D01*
X217202142Y-123368571D01*
X217202142Y-122868571D01*
X217273571Y-122582857D01*
X217416428Y-122440000D01*
X217559285Y-122368571D01*
X218845000Y-122368571D02*
X218845000Y-123582857D01*
X218916428Y-123725714D01*
X218987857Y-123797142D01*
X219130714Y-123868571D01*
X219416428Y-123868571D01*
X219559285Y-123797142D01*
X219630714Y-123725714D01*
X219702142Y-123582857D01*
X219702142Y-122368571D01*
X220202142Y-122368571D02*
X221059285Y-122368571D01*
X220630714Y-123868571D02*
X220630714Y-122368571D01*
X223345000Y-122868571D02*
X223345000Y-123868571D01*
X222987857Y-122297142D02*
X222630714Y-123368571D01*
X223559285Y-123368571D01*
D11*
D12*
X206180714Y-46890714D02*
X206109285Y-46962142D01*
X205895000Y-47033571D01*
X205752142Y-47033571D01*
X205537857Y-46962142D01*
X205395000Y-46819285D01*
X205323571Y-46676428D01*
X205252142Y-46390714D01*
X205252142Y-46176428D01*
X205323571Y-45890714D01*
X205395000Y-45747857D01*
X205537857Y-45605000D01*
X205752142Y-45533571D01*
X205895000Y-45533571D01*
X206109285Y-45605000D01*
X206180714Y-45676428D01*
X206609285Y-45533571D02*
X207109285Y-47033571D01*
X207609285Y-45533571D01*
X209109285Y-45533571D02*
X210037857Y-45533571D01*
X209537857Y-46105000D01*
X209752142Y-46105000D01*
X209895000Y-46176428D01*
X209966428Y-46247857D01*
X210037857Y-46390714D01*
X210037857Y-46747857D01*
X209966428Y-46890714D01*
X209895000Y-46962142D01*
X209752142Y-47033571D01*
X209323571Y-47033571D01*
X209180714Y-46962142D01*
X209109285Y-46890714D01*
D11*
D12*
X174379285Y-122368571D02*
X174665000Y-122368571D01*
X174807857Y-122440000D01*
X174950714Y-122582857D01*
X175022142Y-122868571D01*
X175022142Y-123368571D01*
X174950714Y-123654285D01*
X174807857Y-123797142D01*
X174665000Y-123868571D01*
X174379285Y-123868571D01*
X174236428Y-123797142D01*
X174093571Y-123654285D01*
X174022142Y-123368571D01*
X174022142Y-122868571D01*
X174093571Y-122582857D01*
X174236428Y-122440000D01*
X174379285Y-122368571D01*
X175665000Y-122368571D02*
X175665000Y-123582857D01*
X175736428Y-123725714D01*
X175807857Y-123797142D01*
X175950714Y-123868571D01*
X176236428Y-123868571D01*
X176379285Y-123797142D01*
X176450714Y-123725714D01*
X176522142Y-123582857D01*
X176522142Y-122368571D01*
X177022142Y-122368571D02*
X177879285Y-122368571D01*
X177450714Y-123868571D02*
X177450714Y-122368571D01*
X180307857Y-123868571D02*
X179450714Y-123868571D01*
X179879285Y-123868571D02*
X179879285Y-122368571D01*
X179736428Y-122582857D01*
X179593571Y-122725714D01*
X179450714Y-122797142D01*
D11*
D12*
X188984285Y-122368571D02*
X189270000Y-122368571D01*
X189412857Y-122440000D01*
X189555714Y-122582857D01*
X189627142Y-122868571D01*
X189627142Y-123368571D01*
X189555714Y-123654285D01*
X189412857Y-123797142D01*
X189270000Y-123868571D01*
X188984285Y-123868571D01*
X188841428Y-123797142D01*
X188698571Y-123654285D01*
X188627142Y-123368571D01*
X188627142Y-122868571D01*
X188698571Y-122582857D01*
X188841428Y-122440000D01*
X188984285Y-122368571D01*
X190270000Y-122368571D02*
X190270000Y-123582857D01*
X190341428Y-123725714D01*
X190412857Y-123797142D01*
X190555714Y-123868571D01*
X190841428Y-123868571D01*
X190984285Y-123797142D01*
X191055714Y-123725714D01*
X191127142Y-123582857D01*
X191127142Y-122368571D01*
X191627142Y-122368571D02*
X192484285Y-122368571D01*
X192055714Y-123868571D02*
X192055714Y-122368571D01*
X194055714Y-122511428D02*
X194127142Y-122440000D01*
X194270000Y-122368571D01*
X194627142Y-122368571D01*
X194770000Y-122440000D01*
X194841428Y-122511428D01*
X194912857Y-122654285D01*
X194912857Y-122797142D01*
X194841428Y-123011428D01*
X193984285Y-123868571D01*
X194912857Y-123868571D01*
D11*
D12*
X220150714Y-46890714D02*
X220079285Y-46962142D01*
X219865000Y-47033571D01*
X219722142Y-47033571D01*
X219507857Y-46962142D01*
X219365000Y-46819285D01*
X219293571Y-46676428D01*
X219222142Y-46390714D01*
X219222142Y-46176428D01*
X219293571Y-45890714D01*
X219365000Y-45747857D01*
X219507857Y-45605000D01*
X219722142Y-45533571D01*
X219865000Y-45533571D01*
X220079285Y-45605000D01*
X220150714Y-45676428D01*
X220579285Y-45533571D02*
X221079285Y-47033571D01*
X221579285Y-45533571D01*
X223865000Y-46033571D02*
X223865000Y-47033571D01*
X223507857Y-45462142D02*
X223150714Y-46533571D01*
X224079285Y-46533571D01*
D11*
D12*
X178240714Y-46890714D02*
X178169285Y-46962142D01*
X177955000Y-47033571D01*
X177812142Y-47033571D01*
X177597857Y-46962142D01*
X177455000Y-46819285D01*
X177383571Y-46676428D01*
X177312142Y-46390714D01*
X177312142Y-46176428D01*
X177383571Y-45890714D01*
X177455000Y-45747857D01*
X177597857Y-45605000D01*
X177812142Y-45533571D01*
X177955000Y-45533571D01*
X178169285Y-45605000D01*
X178240714Y-45676428D01*
X178669285Y-45533571D02*
X179169285Y-47033571D01*
X179669285Y-45533571D01*
X182097857Y-47033571D02*
X181240714Y-47033571D01*
X181669285Y-47033571D02*
X181669285Y-45533571D01*
X181526428Y-45747857D01*
X181383571Y-45890714D01*
X181240714Y-45962142D01*
D11*
D12*
X193727142Y-85133571D02*
X192870000Y-85133571D01*
X193298571Y-85133571D02*
X193298571Y-83633571D01*
X193155714Y-83847857D01*
X193012857Y-83990714D01*
X192870000Y-84062142D01*
X194155714Y-83633571D02*
X194655714Y-85133571D01*
X195155714Y-83633571D01*
X196727142Y-83562142D02*
X195441428Y-85490714D01*
X197512857Y-83633571D02*
X197798571Y-83633571D01*
X197941428Y-83705000D01*
X198084285Y-83847857D01*
X198155714Y-84133571D01*
X198155714Y-84633571D01*
X198084285Y-84919285D01*
X197941428Y-85062142D01*
X197798571Y-85133571D01*
X197512857Y-85133571D01*
X197370000Y-85062142D01*
X197227142Y-84919285D01*
X197155714Y-84633571D01*
X197155714Y-84133571D01*
X197227142Y-83847857D01*
X197370000Y-83705000D01*
X197512857Y-83633571D01*
X199655714Y-84990714D02*
X199584285Y-85062142D01*
X199370000Y-85133571D01*
X199227142Y-85133571D01*
X199012857Y-85062142D01*
X198870000Y-84919285D01*
X198798571Y-84776428D01*
X198727142Y-84490714D01*
X198727142Y-84276428D01*
X198798571Y-83990714D01*
X198870000Y-83847857D01*
X199012857Y-83705000D01*
X199227142Y-83633571D01*
X199370000Y-83633571D01*
X199584285Y-83705000D01*
X199655714Y-83776428D01*
X200084285Y-83633571D02*
X200941428Y-83633571D01*
X200512857Y-85133571D02*
X200512857Y-83633571D01*
X202512857Y-83776428D02*
X202584285Y-83705000D01*
X202727142Y-83633571D01*
X203084285Y-83633571D01*
X203227142Y-83705000D01*
X203298571Y-83776428D01*
X203370000Y-83919285D01*
X203370000Y-84062142D01*
X203298571Y-84276428D01*
X202441428Y-85133571D01*
X203370000Y-85133571D01*
D11*
D12*
X192210714Y-46890714D02*
X192139285Y-46962142D01*
X191925000Y-47033571D01*
X191782142Y-47033571D01*
X191567857Y-46962142D01*
X191425000Y-46819285D01*
X191353571Y-46676428D01*
X191282142Y-46390714D01*
X191282142Y-46176428D01*
X191353571Y-45890714D01*
X191425000Y-45747857D01*
X191567857Y-45605000D01*
X191782142Y-45533571D01*
X191925000Y-45533571D01*
X192139285Y-45605000D01*
X192210714Y-45676428D01*
X192639285Y-45533571D02*
X193139285Y-47033571D01*
X193639285Y-45533571D01*
X195210714Y-45676428D02*
X195282142Y-45605000D01*
X195425000Y-45533571D01*
X195782142Y-45533571D01*
X195925000Y-45605000D01*
X195996428Y-45676428D01*
X196067857Y-45819285D01*
X196067857Y-45962142D01*
X195996428Y-46176428D01*
X195139285Y-47033571D01*
X196067857Y-47033571D01*
D11*
D12*
X214130714Y-83705000D02*
X213987857Y-83633571D01*
X213773571Y-83633571D01*
X213559285Y-83705000D01*
X213416428Y-83847857D01*
X213345000Y-83990714D01*
X213273571Y-84276428D01*
X213273571Y-84490714D01*
X213345000Y-84776428D01*
X213416428Y-84919285D01*
X213559285Y-85062142D01*
X213773571Y-85133571D01*
X213916428Y-85133571D01*
X214130714Y-85062142D01*
X214202142Y-84990714D01*
X214202142Y-84490714D01*
X213916428Y-84490714D01*
X214773571Y-84705000D02*
X215487857Y-84705000D01*
X214630714Y-85133571D02*
X215130714Y-83633571D01*
X215630714Y-85133571D01*
X215916428Y-83633571D02*
X216773571Y-83633571D01*
X216345000Y-85133571D02*
X216345000Y-83633571D01*
X217273571Y-84347857D02*
X217773571Y-84347857D01*
X217987857Y-85133571D02*
X217273571Y-85133571D01*
X217273571Y-83633571D01*
X217987857Y-83633571D01*
X219559285Y-83633571D02*
X220416428Y-83633571D01*
X219987857Y-85133571D02*
X219987857Y-83633571D01*
X221773571Y-85133571D02*
X221273571Y-84419285D01*
X220916428Y-85133571D02*
X220916428Y-83633571D01*
X221487857Y-83633571D01*
X221630714Y-83705000D01*
X221702142Y-83776428D01*
X221773571Y-83919285D01*
X221773571Y-84133571D01*
X221702142Y-84276428D01*
X221630714Y-84347857D01*
X221487857Y-84419285D01*
X220916428Y-84419285D01*
X222416428Y-85133571D02*
X222416428Y-83633571D01*
X223916428Y-83705000D02*
X223773571Y-83633571D01*
X223559285Y-83633571D01*
X223345000Y-83705000D01*
X223202142Y-83847857D01*
X223130714Y-83990714D01*
X223059285Y-84276428D01*
X223059285Y-84490714D01*
X223130714Y-84776428D01*
X223202142Y-84919285D01*
X223345000Y-85062142D01*
X223559285Y-85133571D01*
X223702142Y-85133571D01*
X223916428Y-85062142D01*
X223987857Y-84990714D01*
X223987857Y-84490714D01*
X223702142Y-84490714D01*
X225773571Y-85133571D02*
X225773571Y-83633571D01*
X226487857Y-85133571D02*
X226487857Y-83633571D01*
X227345000Y-85133571D01*
X227345000Y-83633571D01*
D11*
D12*
X172772142Y-85133571D02*
X171915000Y-85133571D01*
X172343571Y-85133571D02*
X172343571Y-83633571D01*
X172200714Y-83847857D01*
X172057857Y-83990714D01*
X171915000Y-84062142D01*
X173200714Y-83633571D02*
X173700714Y-85133571D01*
X174200714Y-83633571D01*
X175772142Y-83562142D02*
X174486428Y-85490714D01*
X176557857Y-83633571D02*
X176843571Y-83633571D01*
X176986428Y-83705000D01*
X177129285Y-83847857D01*
X177200714Y-84133571D01*
X177200714Y-84633571D01*
X177129285Y-84919285D01*
X176986428Y-85062142D01*
X176843571Y-85133571D01*
X176557857Y-85133571D01*
X176415000Y-85062142D01*
X176272142Y-84919285D01*
X176200714Y-84633571D01*
X176200714Y-84133571D01*
X176272142Y-83847857D01*
X176415000Y-83705000D01*
X176557857Y-83633571D01*
X178700714Y-84990714D02*
X178629285Y-85062142D01*
X178415000Y-85133571D01*
X178272142Y-85133571D01*
X178057857Y-85062142D01*
X177915000Y-84919285D01*
X177843571Y-84776428D01*
X177772142Y-84490714D01*
X177772142Y-84276428D01*
X177843571Y-83990714D01*
X177915000Y-83847857D01*
X178057857Y-83705000D01*
X178272142Y-83633571D01*
X178415000Y-83633571D01*
X178629285Y-83705000D01*
X178700714Y-83776428D01*
X179129285Y-83633571D02*
X179986428Y-83633571D01*
X179557857Y-85133571D02*
X179557857Y-83633571D01*
X182415000Y-85133571D02*
X181557857Y-85133571D01*
X181986428Y-85133571D02*
X181986428Y-83633571D01*
X181843571Y-83847857D01*
X181700714Y-83990714D01*
X181557857Y-84062142D01*
D13*
%TO.P,C17,1*%
%TO.N,Net-(C17-Pad1)*%
X109163000Y-135302500D03*
%TO.P,C17,2*%
%TO.N,Net-(C17-Pad2)*%
X109163000Y-137202500D03*
%TD*%
D14*
%TO.P,R32,1*%
%TO.N,Net-(C28-Pad1)*%
X128629000Y-97798436D03*
%TO.P,R32,2*%
%TO.N,AUDIO_OUT_R*%
X128629000Y-99623436D03*
%TD*%
D15*
%TO.P,R14,1*%
%TO.N,Net-(C17-Pad2)*%
X113735000Y-137165000D03*
%TO.P,R14,2*%
%TO.N,Net-(C17-Pad1)*%
X113735000Y-135340000D03*
%TD*%
D16*
%TO.P,R53,1*%
%TO.N,Net-(C36-Pad2)*%
X169446500Y-116210000D03*
%TO.P,R53,2*%
%TO.N,Net-(C36-Pad1)*%
X167621500Y-116210000D03*
%TD*%
D17*
%TO.P,C3,1*%
%TO.N,GNDA*%
X147132000Y-131450000D03*
%TO.P,C3,2*%
%TO.N,+3.3VA*%
X145232000Y-131450000D03*
%TD*%
D18*
%TO.P,U1,1,SDATA*%
%TO.N,SAI2_SD_A*%
X162819000Y-138370000D03*
%TO.P,U1,2,~{DEM}/SCLK*%
%TO.N,SAI2_SCK_A*%
X164089000Y-138370000D03*
%TO.P,U1,3,LRCK*%
%TO.N,SAI2_FS_A*%
X165359000Y-138370000D03*
%TO.P,U1,4,MCLK*%
%TO.N,SAI2_MCLK*%
X166629000Y-138370000D03*
%TO.P,U1,5,AOUTR*%
%TO.N,DAC_AUDIO_R*%
X166629000Y-133420000D03*
%TO.P,U1,6,AGND*%
%TO.N,GNDA*%
X165359000Y-133420000D03*
%TO.P,U1,7,VA*%
%TO.N,+5V*%
X164089000Y-133420000D03*
%TO.P,U1,8,AOUTL*%
%TO.N,DAC_AUDIO_L*%
X162819000Y-133420000D03*
%TD*%
D19*
%TO.P,C8,1*%
%TO.N,GNDA*%
X111931000Y-50069936D03*
%TO.P,C8,2*%
%TO.N,+3V3*%
X113831000Y-50069936D03*
%TD*%
D18*
%TO.P,U7,1*%
%TO.N,Net-(C33-Pad2)*%
X160279000Y-112335000D03*
%TO.P,U7,2,-*%
%TO.N,Net-(C33-Pad1)*%
X161549000Y-112335000D03*
%TO.P,U7,3,+*%
%TO.N,GNDA*%
X162819000Y-112335000D03*
%TO.P,U7,4,V+*%
%TO.N,+12V*%
X164089000Y-112335000D03*
%TO.P,U7,5,+*%
%TO.N,GNDA*%
X165359000Y-112335000D03*
%TO.P,U7,6,-*%
%TO.N,Net-(C36-Pad1)*%
X166629000Y-112335000D03*
%TO.P,U7,7*%
%TO.N,Net-(C36-Pad2)*%
X167899000Y-112335000D03*
%TO.P,U7,8*%
%TO.N,Net-(C32-Pad2)*%
X167899000Y-107385000D03*
%TO.P,U7,9,-*%
%TO.N,Net-(C32-Pad1)*%
X166629000Y-107385000D03*
%TO.P,U7,10,+*%
%TO.N,GNDA*%
X165359000Y-107385000D03*
%TO.P,U7,11,V-*%
%TO.N,-12V*%
X164089000Y-107385000D03*
%TO.P,U7,12,+*%
%TO.N,GNDA*%
X162819000Y-107385000D03*
%TO.P,U7,13,-*%
%TO.N,Net-(C35-Pad1)*%
X161549000Y-107385000D03*
%TO.P,U7,14*%
%TO.N,Net-(C35-Pad2)*%
X160279000Y-107385000D03*
%TD*%
D20*
%TO.P,R30,1*%
%TO.N,ADC_CTRL_1*%
X159493500Y-83444000D03*
%TO.P,R30,2*%
%TO.N,Net-(C25-Pad1)*%
X161318500Y-83444000D03*
%TD*%
D21*
%TO.P,J4,1,Pin_1*%
%TO.N,VCC*%
X72395000Y-138435000D03*
D22*
%TO.P,J4,2,Pin_2*%
X72395000Y-140975000D03*
%TO.P,J4,3,Pin_3*%
%TO.N,GNDA*%
X74935000Y-138435000D03*
%TO.P,J4,4,Pin_4*%
X74935000Y-140975000D03*
%TO.P,J4,5,Pin_5*%
X77475000Y-138435000D03*
%TO.P,J4,6,Pin_6*%
X77475000Y-140975000D03*
%TO.P,J4,7,Pin_7*%
X80015000Y-138435000D03*
%TO.P,J4,8,Pin_8*%
X80015000Y-140975000D03*
%TO.P,J4,9,Pin_9*%
%TO.N,VEE*%
X82555000Y-138435000D03*
%TO.P,J4,10,Pin_10*%
X82555000Y-140975000D03*
%TD*%
D19*
%TO.P,C36,1*%
%TO.N,Net-(C36-Pad1)*%
X167584000Y-120655000D03*
%TO.P,C36,2*%
%TO.N,Net-(C36-Pad2)*%
X169484000Y-120655000D03*
%TD*%
D15*
%TO.P,R61,1*%
%TO.N,Net-(C42-Pad1)*%
X155553000Y-91518936D03*
%TO.P,R61,2*%
%TO.N,-10V*%
X155553000Y-89693936D03*
%TD*%
D14*
%TO.P,R13,1*%
%TO.N,Net-(C18-Pad1)*%
X135260000Y-135236500D03*
%TO.P,R13,2*%
%TO.N,Net-(C16-Pad2)*%
X135260000Y-137061500D03*
%TD*%
D23*
%TO.P,RV6,1,1*%
%TO.N,+3.3VP*%
X211445000Y-87172000D03*
%TO.P,RV6,2,2*%
%TO.N,Net-(R63-Pad2)*%
X208905000Y-89712000D03*
%TO.P,RV6,3,3*%
%TO.N,GNDA*%
X206365000Y-87172000D03*
%TD*%
D24*
%TO.P,C18,1*%
%TO.N,Net-(C18-Pad1)*%
X130815000Y-129733000D03*
%TO.P,C18,2*%
%TO.N,Net-(C18-Pad2)*%
X130815000Y-127833000D03*
%TD*%
D20*
%TO.P,R20,1*%
%TO.N,Net-(C25-Pad1)*%
X176892500Y-66680000D03*
%TO.P,R20,2*%
%TO.N,Net-(R20-Pad2)*%
X178717500Y-66680000D03*
%TD*%
D25*
%TO.P,D1,1*%
%TO.N,VCC*%
X72395000Y-133890000D03*
%TO.P,D1,2*%
%TO.N,VEE*%
X74935000Y-133890000D03*
%TO.P,D1,3,+*%
%TO.N,+12V*%
X74935000Y-127740000D03*
%TO.P,D1,4,-*%
%TO.N,-12V*%
X72395000Y-127740000D03*
%TD*%
D17*
%TO.P,C37,1*%
%TO.N,+12V*%
X164851000Y-83444000D03*
%TO.P,C37,2*%
%TO.N,GNDA*%
X162951000Y-83444000D03*
%TD*%
D20*
%TO.P,R59,1*%
%TO.N,GNDA*%
X221342500Y-103080500D03*
%TO.P,R59,2*%
%TO.N,Net-(Q1-Pad1)*%
X223167500Y-103080500D03*
%TD*%
D14*
%TO.P,R38,1*%
%TO.N,Net-(C30-Pad2)*%
X120655000Y-89897500D03*
%TO.P,R38,2*%
%TO.N,Net-(C30-Pad1)*%
X120655000Y-91722500D03*
%TD*%
D19*
%TO.P,C38,1*%
%TO.N,-12V*%
X162946000Y-70744000D03*
%TO.P,C38,2*%
%TO.N,GNDA*%
X164846000Y-70744000D03*
%TD*%
D14*
%TO.P,R48,1*%
%TO.N,Net-(C41-Pad1)*%
X133963000Y-93861436D03*
%TO.P,R48,2*%
%TO.N,-10V*%
X133963000Y-95686436D03*
%TD*%
D19*
%TO.P,C32,1*%
%TO.N,Net-(C32-Pad1)*%
X167584000Y-99065000D03*
%TO.P,C32,2*%
%TO.N,Net-(C32-Pad2)*%
X169484000Y-99065000D03*
%TD*%
D16*
%TO.P,R51,1*%
%TO.N,Net-(C41-Pad1)*%
X187734500Y-98921000D03*
%TO.P,R51,2*%
%TO.N,Net-(J11-PadT)*%
X185909500Y-98921000D03*
%TD*%
D15*
%TO.P,R25,1*%
%TO.N,Net-(C27-Pad1)*%
X200919000Y-63186000D03*
%TO.P,R25,2*%
%TO.N,Net-(J9-PadT)*%
X200919000Y-61361000D03*
%TD*%
D13*
%TO.P,C21,1*%
%TO.N,+12V*%
X107955000Y-93670000D03*
%TO.P,C21,2*%
%TO.N,GNDA*%
X107955000Y-95570000D03*
%TD*%
D14*
%TO.P,R57,1*%
%TO.N,ADC1_1VOCT1*%
X138343000Y-90328936D03*
%TO.P,R57,2*%
%TO.N,Net-(C41-Pad1)*%
X138343000Y-92153936D03*
%TD*%
D26*
%TO.P,J9,S*%
%TO.N,GNDA*%
X207777000Y-49724000D03*
D27*
%TO.P,J9,T*%
%TO.N,Net-(J9-PadT)*%
X207777000Y-61124000D03*
%TO.P,J9,TN*%
%TO.N,unconnected-(J9-PadTN)*%
X207777000Y-52824000D03*
%TD*%
D16*
%TO.P,R55,1*%
%TO.N,Net-(J15-PadT)*%
X171351500Y-124999936D03*
%TO.P,R55,2*%
%TO.N,Net-(C36-Pad2)*%
X169526500Y-124999936D03*
%TD*%
D28*
%TO.P,RV2,*%
%TO.N,*%
X198139000Y-77544000D03*
X188539000Y-77544000D03*
D29*
%TO.P,RV2,1,1*%
%TO.N,+3.3VP*%
X195839000Y-70044000D03*
D30*
%TO.P,RV2,2,2*%
%TO.N,Net-(R23-Pad2)*%
X193339000Y-70044000D03*
%TO.P,RV2,3,3*%
%TO.N,GNDA*%
X190839000Y-70044000D03*
%TD*%
D17*
%TO.P,C34,1*%
%TO.N,Net-(C34-Pad1)*%
X161356000Y-66299000D03*
%TO.P,C34,2*%
%TO.N,ADC_CTRL_4*%
X159456000Y-66299000D03*
%TD*%
D31*
%TO.P,SW1,A,A*%
%TO.N,ENC_A*%
X144190000Y-85868000D03*
D32*
%TO.P,SW1,B,B*%
%TO.N,ENC_B*%
X149190000Y-85868000D03*
%TO.P,SW1,C,C*%
%TO.N,GNDA*%
X146690000Y-85868000D03*
D33*
%TO.P,SW1,MP*%
%TO.N,N/C*%
X141090000Y-78368000D03*
X152290000Y-78368000D03*
D32*
%TO.P,SW1,S1,S1*%
%TO.N,ENC_CLICK*%
X149190000Y-71368000D03*
%TO.P,SW1,S2,S2*%
%TO.N,GNDA*%
X144190000Y-71368000D03*
%TD*%
D17*
%TO.P,C35,1*%
%TO.N,Net-(C35-Pad1)*%
X161864000Y-99065000D03*
%TO.P,C35,2*%
%TO.N,Net-(C35-Pad2)*%
X159964000Y-99065000D03*
%TD*%
D16*
%TO.P,R24,1*%
%TO.N,Net-(C27-Pad1)*%
X164823700Y-66299000D03*
%TO.P,R24,2*%
%TO.N,-10V*%
X162998700Y-66299000D03*
%TD*%
D26*
%TO.P,J11,S*%
%TO.N,GNDA*%
X177297000Y-87316000D03*
D27*
%TO.P,J11,T*%
%TO.N,Net-(J11-PadT)*%
X177297000Y-98716000D03*
%TO.P,J11,TN*%
%TO.N,unconnected-(J11-PadTN)*%
X177297000Y-90416000D03*
%TD*%
D14*
%TO.P,R60,1*%
%TO.N,Net-(Q1-Pad3)*%
X221493000Y-111233500D03*
%TO.P,R60,2*%
%TO.N,+3.3VA*%
X221493000Y-113058500D03*
%TD*%
D13*
%TO.P,C31,1*%
%TO.N,Net-(C31-Pad1)*%
X103510000Y-97480000D03*
%TO.P,C31,2*%
%TO.N,Net-(C31-Pad2)*%
X103510000Y-99380000D03*
%TD*%
D16*
%TO.P,R50,1*%
%TO.N,Net-(C36-Pad1)*%
X165636500Y-120655000D03*
%TO.P,R50,2*%
%TO.N,Net-(C33-Pad2)*%
X163811500Y-120655000D03*
%TD*%
D34*
%TO.P,J3,1,DAT2*%
%TO.N,SDMMC1_D2*%
X144125000Y-51160000D03*
%TO.P,J3,2,DAT3/CD*%
%TO.N,SDMMC1_D3*%
X145225000Y-51160000D03*
%TO.P,J3,3,CMD*%
%TO.N,SDMMC1_CMD*%
X146325000Y-51160000D03*
%TO.P,J3,4,VDD*%
%TO.N,+3.3VA*%
X147425000Y-51160000D03*
%TO.P,J3,5,CLK*%
%TO.N,SDMMC1_CK*%
X148525000Y-51160000D03*
%TO.P,J3,6,VSS*%
%TO.N,GNDA*%
X149625000Y-51160000D03*
%TO.P,J3,7,DAT0*%
%TO.N,SDMMC1_D0*%
X150725000Y-51160000D03*
%TO.P,J3,8,DAT1*%
%TO.N,SDMMC1_D1*%
X151825000Y-51160000D03*
D35*
%TO.P,J3,9,SHIELD*%
%TO.N,GNDA*%
X140450000Y-48560000D03*
X154200000Y-56860000D03*
X154200000Y-48560000D03*
X140450000Y-56860000D03*
%TD*%
D26*
%TO.P,J6,S*%
%TO.N,GNDA*%
X210063000Y-103064000D03*
D27*
%TO.P,J6,T*%
%TO.N,Net-(J6-PadT)*%
X210063000Y-114464000D03*
%TO.P,J6,TN*%
%TO.N,unconnected-(J6-PadTN)*%
X210063000Y-106164000D03*
%TD*%
D15*
%TO.P,R7,1*%
%TO.N,-12V*%
X167491000Y-63047436D03*
%TO.P,R7,2*%
%TO.N,-10V*%
X167491000Y-61222436D03*
%TD*%
D36*
%TO.P,Q1,1,B*%
%TO.N,Net-(Q1-Pad1)*%
X223205000Y-106207000D03*
%TO.P,Q1,2,E*%
%TO.N,GNDA*%
X221305000Y-106207000D03*
%TO.P,Q1,3,C*%
%TO.N,Net-(Q1-Pad3)*%
X222255000Y-108082000D03*
%TD*%
D20*
%TO.P,R45,1*%
%TO.N,Net-(C33-Pad2)*%
X160001500Y-116210000D03*
%TO.P,R45,2*%
%TO.N,Net-(C33-Pad1)*%
X161826500Y-116210000D03*
%TD*%
D14*
%TO.P,R16,1*%
%TO.N,AUDIO_IN_L*%
X104780000Y-127720000D03*
%TO.P,R16,2*%
%TO.N,Net-(C17-Pad2)*%
X104780000Y-129545000D03*
%TD*%
D37*
%TO.P,U2,1,VIN*%
%TO.N,+12V*%
X86685000Y-52577500D03*
%TO.P,U2,2,GND*%
%TO.N,GNDA*%
X87635000Y-52577500D03*
%TO.P,U2,3,EN*%
%TO.N,+12V*%
X88585000Y-52577500D03*
%TO.P,U2,4,NC*%
%TO.N,unconnected-(U2-Pad4)*%
X88585000Y-50302500D03*
%TO.P,U2,5,VOUT*%
%TO.N,+3V3*%
X86685000Y-50302500D03*
%TD*%
D28*
%TO.P,RV1,*%
%TO.N,*%
X183661000Y-77544000D03*
X174061000Y-77544000D03*
D29*
%TO.P,RV1,1,1*%
%TO.N,+3.3VP*%
X181361000Y-70044000D03*
D30*
%TO.P,RV1,2,2*%
%TO.N,Net-(R20-Pad2)*%
X178861000Y-70044000D03*
%TO.P,RV1,3,3*%
%TO.N,GNDA*%
X176361000Y-70044000D03*
%TD*%
D26*
%TO.P,J7,S*%
%TO.N,GNDA*%
X179329000Y-49978000D03*
D27*
%TO.P,J7,T*%
%TO.N,Net-(J7-PadT)*%
X179329000Y-61378000D03*
%TO.P,J7,TN*%
%TO.N,unconnected-(J7-PadTN)*%
X179329000Y-53078000D03*
%TD*%
D24*
%TO.P,C19,1*%
%TO.N,+12V*%
X113670000Y-133350000D03*
%TO.P,C19,2*%
%TO.N,GNDA*%
X113670000Y-131450000D03*
%TD*%
D38*
%TO.P,L1,1,1*%
%TO.N,Net-(C12-Pad1)*%
X84460000Y-132292500D03*
%TO.P,L1,2,2*%
%TO.N,Net-(L1-Pad2)*%
X84460000Y-134417500D03*
%TD*%
D16*
%TO.P,R43,1*%
%TO.N,Net-(C33-Pad1)*%
X161826500Y-125100000D03*
%TO.P,R43,2*%
%TO.N,DAC_AUDIO_L*%
X160001500Y-125100000D03*
%TD*%
D15*
%TO.P,R40,1*%
%TO.N,Net-(J13-PadT)*%
X184763000Y-138612436D03*
%TO.P,R40,2*%
%TO.N,Net-(C30-Pad2)*%
X184763000Y-136787436D03*
%TD*%
D24*
%TO.P,C29,1*%
%TO.N,Net-(C29-Pad1)*%
X103510000Y-91760000D03*
%TO.P,C29,2*%
%TO.N,Net-(C29-Pad2)*%
X103510000Y-89860000D03*
%TD*%
D26*
%TO.P,J16,S*%
%TO.N,GNDA*%
X220223000Y-87254000D03*
D27*
%TO.P,J16,T*%
%TO.N,Net-(J16-PadT)*%
X220223000Y-98654000D03*
%TO.P,J16,TN*%
%TO.N,unconnected-(J16-PadTN)*%
X220223000Y-90354000D03*
%TD*%
D14*
%TO.P,R42,1*%
%TO.N,Net-(C32-Pad1)*%
X169042000Y-128759500D03*
%TO.P,R42,2*%
%TO.N,DAC_AUDIO_R*%
X169042000Y-130584500D03*
%TD*%
D21*
%TO.P,J2,1,Pin_1*%
%TO.N,GNDA*%
X111765000Y-55250000D03*
D22*
%TO.P,J2,2,Pin_2*%
%TO.N,+3V3*%
X114305000Y-55250000D03*
%TO.P,J2,3,Pin_3*%
%TO.N,OLED_SCK*%
X116845000Y-55250000D03*
%TO.P,J2,4,Pin_4*%
%TO.N,OLED_DATA_MOSI*%
X119385000Y-55250000D03*
%TO.P,J2,5,Pin_5*%
%TO.N,OLED_RST*%
X121925000Y-55250000D03*
%TO.P,J2,6,Pin_6*%
%TO.N,OLED_CMD_MISO*%
X124465000Y-55250000D03*
%TO.P,J2,7,Pin_7*%
%TO.N,OLED_CS*%
X127005000Y-55250000D03*
%TD*%
D20*
%TO.P,R26,1*%
%TO.N,Net-(C27-Pad1)*%
X206102500Y-66426000D03*
%TO.P,R26,2*%
%TO.N,Net-(R26-Pad2)*%
X207927500Y-66426000D03*
%TD*%
D14*
%TO.P,R10,1*%
%TO.N,Net-(C15-Pad2)*%
X113670000Y-127720000D03*
%TO.P,R10,2*%
%TO.N,Net-(C15-Pad1)*%
X113670000Y-129545000D03*
%TD*%
D20*
%TO.P,R9,1*%
%TO.N,Net-(C16-Pad1)*%
X202292500Y-114940000D03*
%TO.P,R9,2*%
%TO.N,Net-(J6-PadT)*%
X204117500Y-114940000D03*
%TD*%
D15*
%TO.P,R37,1*%
%TO.N,Net-(C31-Pad1)*%
X99065000Y-95810000D03*
%TO.P,R37,2*%
%TO.N,Net-(C29-Pad2)*%
X99065000Y-93985000D03*
%TD*%
D39*
%TO.P,J1,1,Pin_1*%
%TO.N,ENC_CLICK*%
X150495000Y-106045000D03*
D40*
%TO.P,J1,2,Pin_2*%
%TO.N,SDMMC1_D3*%
X147955000Y-106045000D03*
%TO.P,J1,3,Pin_3*%
%TO.N,SDMMC1_D2*%
X145415000Y-106045000D03*
%TO.P,J1,4,Pin_4*%
%TO.N,SDMMC1_D1*%
X142875000Y-106045000D03*
%TO.P,J1,5,Pin_5*%
%TO.N,SDMMC1_D0*%
X140335000Y-106045000D03*
%TO.P,J1,6,Pin_6*%
%TO.N,SDMMC1_CMD*%
X137795000Y-106045000D03*
%TO.P,J1,7,Pin_7*%
%TO.N,SDMMC1_CK*%
X135255000Y-106045000D03*
%TO.P,J1,8,Pin_8*%
%TO.N,OLED_CS*%
X132715000Y-106045000D03*
%TO.P,J1,9,Pin_9*%
%TO.N,OLED_SCK*%
X130175000Y-106045000D03*
%TO.P,J1,10,Pin_10*%
%TO.N,OLED_CMD_MISO*%
X127635000Y-106045000D03*
%TO.P,J1,11,Pin_11*%
%TO.N,OLED_DATA_MOSI*%
X125095000Y-106045000D03*
%TO.P,J1,12,Pin_12*%
%TO.N,ENC_B*%
X122555000Y-106045000D03*
%TO.P,J1,13,Pin_13*%
%TO.N,ENC_A*%
X120015000Y-106045000D03*
%TO.P,J1,14,Pin_14*%
%TO.N,USART1_TX*%
X117475000Y-106045000D03*
%TO.P,J1,15,Pin_15*%
%TO.N,USART1_RX*%
X114935000Y-106045000D03*
%TO.P,J1,16,Pin_16*%
%TO.N,AUDIO_IN_L*%
X112395000Y-106045000D03*
%TO.P,J1,17,Pin_17*%
%TO.N,AUDIO_IN_R*%
X109855000Y-106045000D03*
%TO.P,J1,18,Pin_18*%
%TO.N,AUDIO_OUT_L*%
X107315000Y-106045000D03*
%TO.P,J1,19,Pin_19*%
%TO.N,AUDIO_OUT_R*%
X104775000Y-106045000D03*
%TO.P,J1,20,Pin_20*%
%TO.N,GNDA*%
X102235000Y-106045000D03*
%TO.P,J1,21,Pin_21*%
%TO.N,+3.3VP*%
X102235000Y-121285000D03*
%TO.P,J1,22,Pin_22*%
%TO.N,ADC_CTRL_1*%
X104775000Y-121285000D03*
%TO.P,J1,23,Pin_23*%
%TO.N,ADC_CTRL_2*%
X107315000Y-121285000D03*
%TO.P,J1,24,Pin_24*%
%TO.N,ADC1_1VOCT2*%
X109855000Y-121285000D03*
%TO.P,J1,25,Pin_25*%
%TO.N,ADC_CTRL_4*%
X112395000Y-121285000D03*
%TO.P,J1,26,Pin_26*%
%TO.N,ADC1_1VOCT1*%
X114935000Y-121285000D03*
%TO.P,J1,27,Pin_27*%
%TO.N,ADC1_GATE_IN*%
X117475000Y-121285000D03*
%TO.P,J1,28,Pin_28*%
%TO.N,ADC_CTRL_3*%
X120015000Y-121285000D03*
%TO.P,J1,29,Pin_29*%
%TO.N,DAC1_OUT2*%
X122555000Y-121285000D03*
%TO.P,J1,30,Pin_30*%
%TO.N,DAC1_OUT1*%
X125095000Y-121285000D03*
%TO.P,J1,31,Pin_31*%
%TO.N,SAI2_MCLK*%
X127635000Y-121285000D03*
%TO.P,J1,32,Pin_32*%
%TO.N,SAI2_SD_B*%
X130175000Y-121285000D03*
%TO.P,J1,33,Pin_33*%
%TO.N,SAI2_SD_A*%
X132715000Y-121285000D03*
%TO.P,J1,34,Pin_34*%
%TO.N,SAI2_FS_A*%
X135255000Y-121285000D03*
%TO.P,J1,35,Pin_35*%
%TO.N,SAI2_SCK_A*%
X137795000Y-121285000D03*
%TO.P,J1,36,Pin_36*%
%TO.N,USB_HS_D_-*%
X140335000Y-121285000D03*
%TO.P,J1,37,Pin_37*%
%TO.N,OLED_RST*%
X142875000Y-121285000D03*
%TO.P,J1,38,Pin_38*%
%TO.N,+3.3VA*%
X145415000Y-121285000D03*
%TO.P,J1,39,Pin_39*%
%TO.N,+5V*%
X147955000Y-121285000D03*
%TO.P,J1,40,Pin_40*%
%TO.N,GNDA*%
X150495000Y-121285000D03*
%TD*%
D41*
%TO.P,C5,1*%
%TO.N,+12V*%
X87340000Y-59060000D03*
%TO.P,C5,2*%
%TO.N,GNDA*%
X91740000Y-59060000D03*
%TD*%
D13*
%TO.P,C39,1*%
%TO.N,+12V*%
X151043000Y-89698936D03*
%TO.P,C39,2*%
%TO.N,GNDA*%
X151043000Y-91598936D03*
%TD*%
D15*
%TO.P,R56,1*%
%TO.N,Net-(C41-Pad1)*%
X187823000Y-94777000D03*
%TO.P,R56,2*%
%TO.N,Net-(R56-Pad2)*%
X187823000Y-92952000D03*
%TD*%
D42*
%TO.P,U8,1*%
%TO.N,ADC_CTRL_1*%
X161631000Y-79956500D03*
%TO.P,U8,2,-*%
%TO.N,Net-(C25-Pad1)*%
X162281000Y-79956500D03*
%TO.P,U8,3,+*%
%TO.N,GNDA*%
X162931000Y-79956500D03*
%TO.P,U8,4,V+*%
%TO.N,+12V*%
X163581000Y-79956500D03*
%TO.P,U8,5,+*%
%TO.N,GNDA*%
X164231000Y-79956500D03*
%TO.P,U8,6,-*%
%TO.N,Net-(C26-Pad1)*%
X164881000Y-79956500D03*
%TO.P,U8,7*%
%TO.N,ADC_CTRL_2*%
X165531000Y-79956500D03*
%TO.P,U8,8*%
%TO.N,ADC_CTRL_3*%
X165531000Y-74231500D03*
%TO.P,U8,9,-*%
%TO.N,Net-(C27-Pad1)*%
X164881000Y-74231500D03*
%TO.P,U8,10,+*%
%TO.N,GNDA*%
X164231000Y-74231500D03*
%TO.P,U8,11,V-*%
%TO.N,-12V*%
X163581000Y-74231500D03*
%TO.P,U8,12,+*%
%TO.N,GNDA*%
X162931000Y-74231500D03*
%TO.P,U8,13,-*%
%TO.N,Net-(C34-Pad1)*%
X162281000Y-74231500D03*
%TO.P,U8,14*%
%TO.N,ADC_CTRL_4*%
X161631000Y-74231500D03*
%TD*%
D43*
%TO.P,U3,1,GND*%
%TO.N,GNDA*%
X94010000Y-127880000D03*
%TO.P,U3,2,VO*%
%TO.N,+5V*%
X94010000Y-130180000D03*
%TO.P,U3,3,VI*%
%TO.N,Net-(L1-Pad2)*%
X94010000Y-132480000D03*
D44*
%TO.P,U3,4*%
%TO.N,N/C*%
X100310000Y-130180000D03*
%TD*%
D45*
%TO.P,C7,1*%
%TO.N,GNDA*%
X73665000Y-119725000D03*
%TO.P,C7,2*%
%TO.N,-12V*%
X73665000Y-124125000D03*
%TD*%
D13*
%TO.P,C1,1*%
%TO.N,GNDA*%
X98303000Y-120406000D03*
%TO.P,C1,2*%
%TO.N,+3.3VP*%
X98303000Y-122306000D03*
%TD*%
D28*
%TO.P,RV3,*%
%TO.N,*%
X203017000Y-77544000D03*
X212617000Y-77544000D03*
D29*
%TO.P,RV3,1,1*%
%TO.N,+3.3VP*%
X210317000Y-70044000D03*
D30*
%TO.P,RV3,2,2*%
%TO.N,Net-(R26-Pad2)*%
X207817000Y-70044000D03*
%TO.P,RV3,3,3*%
%TO.N,GNDA*%
X205317000Y-70044000D03*
%TD*%
D26*
%TO.P,J15,S*%
%TO.N,GNDA*%
X205745000Y-126432000D03*
D27*
%TO.P,J15,T*%
%TO.N,Net-(J15-PadT)*%
X205745000Y-137832000D03*
%TO.P,J15,TN*%
%TO.N,unconnected-(J15-PadTN)*%
X205745000Y-129532000D03*
%TD*%
D20*
%TO.P,R49,1*%
%TO.N,Net-(C35-Pad1)*%
X163811500Y-99065000D03*
%TO.P,R49,2*%
%TO.N,Net-(C32-Pad2)*%
X165636500Y-99065000D03*
%TD*%
D24*
%TO.P,C30,1*%
%TO.N,Net-(C30-Pad1)*%
X125100000Y-91760000D03*
%TO.P,C30,2*%
%TO.N,Net-(C30-Pad2)*%
X125100000Y-89860000D03*
%TD*%
D14*
%TO.P,R33,1*%
%TO.N,Net-(C29-Pad1)*%
X103510000Y-93707500D03*
%TO.P,R33,2*%
%TO.N,AUDIO_OUT_L*%
X103510000Y-95532500D03*
%TD*%
D46*
%TO.P,U4,1,K*%
%TO.N,GNDA*%
X166163500Y-56822500D03*
%TO.P,U4,2,A*%
%TO.N,-10V*%
X168063500Y-56822500D03*
%TO.P,U4,3*%
%TO.N,N/C*%
X167113500Y-54947500D03*
%TD*%
D16*
%TO.P,R54,1*%
%TO.N,Net-(J14-PadT)*%
X161826500Y-93985000D03*
%TO.P,R54,2*%
%TO.N,Net-(C35-Pad2)*%
X160001500Y-93985000D03*
%TD*%
D24*
%TO.P,C41,1*%
%TO.N,Net-(C41-Pad1)*%
X133898000Y-92191436D03*
%TO.P,C41,2*%
%TO.N,ADC1_1VOCT1*%
X133898000Y-90291436D03*
%TD*%
D16*
%TO.P,R46,1*%
%TO.N,ADC_CTRL_3*%
X168303500Y-66299000D03*
%TO.P,R46,2*%
%TO.N,Net-(C27-Pad1)*%
X166478500Y-66299000D03*
%TD*%
D15*
%TO.P,R39,1*%
%TO.N,Net-(C31-Pad2)*%
X107955000Y-99342500D03*
%TO.P,R39,2*%
%TO.N,Net-(C31-Pad1)*%
X107955000Y-97517500D03*
%TD*%
%TO.P,R41,1*%
%TO.N,Net-(J12-PadT)*%
X170920000Y-138966500D03*
%TO.P,R41,2*%
%TO.N,Net-(C31-Pad2)*%
X170920000Y-137141500D03*
%TD*%
D16*
%TO.P,R44,1*%
%TO.N,Net-(C32-Pad2)*%
X169446500Y-103510000D03*
%TO.P,R44,2*%
%TO.N,Net-(C32-Pad1)*%
X167621500Y-103510000D03*
%TD*%
D17*
%TO.P,C33,1*%
%TO.N,Net-(C33-Pad1)*%
X161864000Y-120655000D03*
%TO.P,C33,2*%
%TO.N,Net-(C33-Pad2)*%
X159964000Y-120655000D03*
%TD*%
D20*
%TO.P,R47,1*%
%TO.N,ADC_CTRL_4*%
X159493500Y-70744000D03*
%TO.P,R47,2*%
%TO.N,Net-(C34-Pad1)*%
X161318500Y-70744000D03*
%TD*%
%TO.P,R23,1*%
%TO.N,Net-(C26-Pad1)*%
X191624500Y-67188000D03*
%TO.P,R23,2*%
%TO.N,Net-(R23-Pad2)*%
X193449500Y-67188000D03*
%TD*%
D47*
%TO.P,U6,1*%
%TO.N,Net-(C29-Pad2)*%
X111830000Y-90175000D03*
%TO.P,U6,2,-*%
%TO.N,Net-(C29-Pad1)*%
X111830000Y-91445000D03*
%TO.P,U6,3,+*%
%TO.N,GNDA*%
X111830000Y-92715000D03*
%TO.P,U6,4,V+*%
%TO.N,+12V*%
X111830000Y-93985000D03*
%TO.P,U6,5,+*%
%TO.N,GNDA*%
X111830000Y-95255000D03*
%TO.P,U6,6,-*%
%TO.N,Net-(C31-Pad1)*%
X111830000Y-96525000D03*
%TO.P,U6,7*%
%TO.N,Net-(C31-Pad2)*%
X111830000Y-97795000D03*
%TO.P,U6,8*%
%TO.N,Net-(C28-Pad2)*%
X116780000Y-97795000D03*
%TO.P,U6,9,-*%
%TO.N,Net-(C28-Pad1)*%
X116780000Y-96525000D03*
%TO.P,U6,10,+*%
%TO.N,GNDA*%
X116780000Y-95255000D03*
%TO.P,U6,11,V-*%
%TO.N,-12V*%
X116780000Y-93985000D03*
%TO.P,U6,12,+*%
%TO.N,GNDA*%
X116780000Y-92715000D03*
%TO.P,U6,13,-*%
%TO.N,Net-(C30-Pad1)*%
X116780000Y-91445000D03*
%TO.P,U6,14*%
%TO.N,Net-(C30-Pad2)*%
X116780000Y-90175000D03*
%TD*%
D20*
%TO.P,R52,1*%
%TO.N,Net-(C35-Pad2)*%
X160001500Y-103510000D03*
%TO.P,R52,2*%
%TO.N,Net-(C35-Pad1)*%
X161826500Y-103510000D03*
%TD*%
D26*
%TO.P,J10,S*%
%TO.N,GNDA*%
X222001000Y-49724000D03*
D27*
%TO.P,J10,T*%
%TO.N,Net-(J10-PadT)*%
X222001000Y-61124000D03*
%TO.P,J10,TN*%
%TO.N,unconnected-(J10-PadTN)*%
X222001000Y-52824000D03*
%TD*%
D15*
%TO.P,R11,1*%
%TO.N,Net-(C16-Pad2)*%
X126370000Y-137061500D03*
%TO.P,R11,2*%
%TO.N,Net-(C16-Pad1)*%
X126370000Y-135236500D03*
%TD*%
D19*
%TO.P,C23,1*%
%TO.N,+12V*%
X163774000Y-116210000D03*
%TO.P,C23,2*%
%TO.N,GNDA*%
X165674000Y-116210000D03*
%TD*%
D24*
%TO.P,C22,1*%
%TO.N,-12V*%
X120655000Y-95570000D03*
%TO.P,C22,2*%
%TO.N,GNDA*%
X120655000Y-93670000D03*
%TD*%
D13*
%TO.P,C9,1*%
%TO.N,+12V*%
X84460000Y-127960000D03*
%TO.P,C9,2*%
%TO.N,GNDA*%
X84460000Y-129860000D03*
%TD*%
%TO.P,C4,1*%
%TO.N,GNDA*%
X95890000Y-57790000D03*
%TO.P,C4,2*%
%TO.N,+12V*%
X95890000Y-59690000D03*
%TD*%
D26*
%TO.P,J17,S*%
%TO.N,GNDA*%
X198379000Y-87316000D03*
D27*
%TO.P,J17,T*%
%TO.N,Net-(J17-PadT)*%
X198379000Y-98716000D03*
%TO.P,J17,TN*%
%TO.N,unconnected-(J17-PadTN)*%
X198379000Y-90416000D03*
%TD*%
D15*
%TO.P,R58,1*%
%TO.N,Net-(Q1-Pad1)*%
X226319000Y-103049000D03*
%TO.P,R58,2*%
%TO.N,Net-(J16-PadT)*%
X226319000Y-101224000D03*
%TD*%
D47*
%TO.P,U5,1*%
%TO.N,Net-(C15-Pad2)*%
X117545000Y-128910000D03*
%TO.P,U5,2,-*%
%TO.N,Net-(C15-Pad1)*%
X117545000Y-130180000D03*
%TO.P,U5,3,+*%
%TO.N,GNDA*%
X117545000Y-131450000D03*
%TO.P,U5,4,V+*%
%TO.N,+12V*%
X117545000Y-132720000D03*
%TO.P,U5,5,+*%
%TO.N,GNDA*%
X117545000Y-133990000D03*
%TO.P,U5,6,-*%
%TO.N,Net-(C17-Pad1)*%
X117545000Y-135260000D03*
%TO.P,U5,7*%
%TO.N,Net-(C17-Pad2)*%
X117545000Y-136530000D03*
%TO.P,U5,8*%
%TO.N,Net-(C16-Pad2)*%
X122495000Y-136530000D03*
%TO.P,U5,9,-*%
%TO.N,Net-(C16-Pad1)*%
X122495000Y-135260000D03*
%TO.P,U5,10,+*%
%TO.N,GNDA*%
X122495000Y-133990000D03*
%TO.P,U5,11,V-*%
%TO.N,-12V*%
X122495000Y-132720000D03*
%TO.P,U5,12,+*%
%TO.N,GNDA*%
X122495000Y-131450000D03*
%TO.P,U5,13,-*%
%TO.N,Net-(C18-Pad1)*%
X122495000Y-130180000D03*
%TO.P,U5,14*%
%TO.N,Net-(C18-Pad2)*%
X122495000Y-128910000D03*
%TD*%
D24*
%TO.P,C40,1*%
%TO.N,-12V*%
X138343000Y-95681436D03*
%TO.P,C40,2*%
%TO.N,GNDA*%
X138343000Y-93781436D03*
%TD*%
D17*
%TO.P,C43,1*%
%TO.N,GNDA*%
X165674000Y-129545000D03*
%TO.P,C43,2*%
%TO.N,+5V*%
X163774000Y-129545000D03*
%TD*%
D14*
%TO.P,R65,1*%
%TO.N,ADC1_1VOCT2*%
X151043000Y-93503936D03*
%TO.P,R65,2*%
%TO.N,Net-(C42-Pad1)*%
X151043000Y-95328936D03*
%TD*%
D28*
%TO.P,RV4,*%
%TO.N,*%
X227095000Y-77544000D03*
X217495000Y-77544000D03*
D29*
%TO.P,RV4,1,1*%
%TO.N,+3.3VP*%
X224795000Y-70044000D03*
D30*
%TO.P,RV4,2,2*%
%TO.N,Net-(R29-Pad2)*%
X222295000Y-70044000D03*
%TO.P,RV4,3,3*%
%TO.N,GNDA*%
X219795000Y-70044000D03*
%TD*%
D26*
%TO.P,J12,S*%
%TO.N,GNDA*%
X177297000Y-126686000D03*
D27*
%TO.P,J12,T*%
%TO.N,Net-(J12-PadT)*%
X177297000Y-138086000D03*
%TO.P,J12,TN*%
%TO.N,unconnected-(J12-PadTN)*%
X177297000Y-129786000D03*
%TD*%
D15*
%TO.P,R22,1*%
%TO.N,Net-(C26-Pad1)*%
X186695000Y-63082500D03*
%TO.P,R22,2*%
%TO.N,Net-(J8-PadT)*%
X186695000Y-61257500D03*
%TD*%
D26*
%TO.P,J5,S*%
%TO.N,GNDA*%
X187203000Y-103064000D03*
D27*
%TO.P,J5,T*%
%TO.N,Net-(J5-PadT)*%
X187203000Y-114464000D03*
%TO.P,J5,TN*%
%TO.N,unconnected-(J5-PadTN)*%
X187203000Y-106164000D03*
%TD*%
D13*
%TO.P,C28,1*%
%TO.N,Net-(C28-Pad1)*%
X125100000Y-97757500D03*
%TO.P,C28,2*%
%TO.N,Net-(C28-Pad2)*%
X125100000Y-99657500D03*
%TD*%
D16*
%TO.P,R5,1*%
%TO.N,+3.3VA*%
X145443500Y-63886000D03*
%TO.P,R5,2*%
%TO.N,SDMMC1_D2*%
X143618500Y-63886000D03*
%TD*%
D15*
%TO.P,R19,1*%
%TO.N,Net-(C25-Pad1)*%
X172471000Y-63082500D03*
%TO.P,R19,2*%
%TO.N,Net-(J7-PadT)*%
X172471000Y-61257500D03*
%TD*%
D47*
%TO.P,U9,1*%
%TO.N,ADC1_1VOCT1*%
X142218000Y-90606436D03*
%TO.P,U9,2,-*%
%TO.N,Net-(C41-Pad1)*%
X142218000Y-91876436D03*
%TO.P,U9,3,+*%
%TO.N,GNDA*%
X142218000Y-93146436D03*
%TO.P,U9,4,V-*%
%TO.N,-12V*%
X142218000Y-94416436D03*
%TO.P,U9,5,+*%
%TO.N,GNDA*%
X147168000Y-94416436D03*
%TO.P,U9,6,-*%
%TO.N,Net-(C42-Pad1)*%
X147168000Y-93146436D03*
%TO.P,U9,7*%
%TO.N,ADC1_1VOCT2*%
X147168000Y-91876436D03*
%TO.P,U9,8,V+*%
%TO.N,+12V*%
X147168000Y-90606436D03*
%TD*%
D26*
%TO.P,J13,S*%
%TO.N,GNDA*%
X191521000Y-126432000D03*
D27*
%TO.P,J13,T*%
%TO.N,Net-(J13-PadT)*%
X191521000Y-137832000D03*
%TO.P,J13,TN*%
%TO.N,unconnected-(J13-PadTN)*%
X191521000Y-129532000D03*
%TD*%
D14*
%TO.P,R17,1*%
%TO.N,AUDIO_IN_R*%
X135260000Y-127870500D03*
%TO.P,R17,2*%
%TO.N,Net-(C18-Pad2)*%
X135260000Y-129695500D03*
%TD*%
D15*
%TO.P,R64,1*%
%TO.N,ADC1_GATE_IN*%
X226065000Y-113058500D03*
%TO.P,R64,2*%
%TO.N,Net-(Q1-Pad3)*%
X226065000Y-111233500D03*
%TD*%
D48*
%TO.P,C6,1*%
%TO.N,+12V*%
X82555000Y-124125000D03*
%TO.P,C6,2*%
%TO.N,GNDA*%
X82555000Y-119725000D03*
%TD*%
D20*
%TO.P,R8,1*%
%TO.N,Net-(C15-Pad1)*%
X179432500Y-115194000D03*
%TO.P,R8,2*%
%TO.N,Net-(J5-PadT)*%
X181257500Y-115194000D03*
%TD*%
%TO.P,R1,1*%
%TO.N,+3.3VA*%
X152104000Y-67696000D03*
%TO.P,R1,2*%
%TO.N,SDMMC1_D1*%
X153929000Y-67696000D03*
%TD*%
D24*
%TO.P,C20,1*%
%TO.N,-12V*%
X126370000Y-133392500D03*
%TO.P,C20,2*%
%TO.N,GNDA*%
X126370000Y-131492500D03*
%TD*%
%TO.P,C42,1*%
%TO.N,Net-(C42-Pad1)*%
X155488000Y-95403936D03*
%TO.P,C42,2*%
%TO.N,ADC1_1VOCT2*%
X155488000Y-93503936D03*
%TD*%
D17*
%TO.P,C25,1*%
%TO.N,Net-(C25-Pad1)*%
X161356000Y-88016000D03*
%TO.P,C25,2*%
%TO.N,ADC_CTRL_1*%
X159456000Y-88016000D03*
%TD*%
D14*
%TO.P,R6,1*%
%TO.N,+12V*%
X89540000Y-127997500D03*
%TO.P,R6,2*%
%TO.N,Net-(C12-Pad1)*%
X89540000Y-129822500D03*
%TD*%
%TO.P,R36,1*%
%TO.N,Net-(C30-Pad1)*%
X125100000Y-93707500D03*
%TO.P,R36,2*%
%TO.N,Net-(C28-Pad2)*%
X125100000Y-95532500D03*
%TD*%
D20*
%TO.P,R29,1*%
%TO.N,Net-(C34-Pad1)*%
X220223000Y-66426000D03*
%TO.P,R29,2*%
%TO.N,Net-(R29-Pad2)*%
X222048000Y-66426000D03*
%TD*%
D26*
%TO.P,J14,S*%
%TO.N,GNDA*%
X220223000Y-126432000D03*
D27*
%TO.P,J14,T*%
%TO.N,Net-(J14-PadT)*%
X220223000Y-137832000D03*
%TO.P,J14,TN*%
%TO.N,unconnected-(J14-PadTN)*%
X220223000Y-129532000D03*
%TD*%
D19*
%TO.P,C27,1*%
%TO.N,Net-(C27-Pad1)*%
X166441000Y-70744000D03*
%TO.P,C27,2*%
%TO.N,ADC_CTRL_3*%
X168341000Y-70744000D03*
%TD*%
D16*
%TO.P,R62,1*%
%TO.N,Net-(C42-Pad1)*%
X208943500Y-98811000D03*
%TO.P,R62,2*%
%TO.N,Net-(J17-PadT)*%
X207118500Y-98811000D03*
%TD*%
%TO.P,R21,1*%
%TO.N,Net-(C26-Pad1)*%
X168430500Y-92588000D03*
%TO.P,R21,2*%
%TO.N,-10V*%
X166605500Y-92588000D03*
%TD*%
D19*
%TO.P,C2,1*%
%TO.N,+5V*%
X147706000Y-127132000D03*
%TO.P,C2,2*%
%TO.N,GNDA*%
X149606000Y-127132000D03*
%TD*%
D16*
%TO.P,R4,1*%
%TO.N,+3.3VA*%
X141276000Y-67442000D03*
%TO.P,R4,2*%
%TO.N,SDMMC1_D3*%
X139451000Y-67442000D03*
%TD*%
D15*
%TO.P,R63,1*%
%TO.N,Net-(C42-Pad1)*%
X208920000Y-95343500D03*
%TO.P,R63,2*%
%TO.N,Net-(R63-Pad2)*%
X208920000Y-93518500D03*
%TD*%
D48*
%TO.P,C13,1*%
%TO.N,+5V*%
X91445000Y-124125000D03*
%TO.P,C13,2*%
%TO.N,GNDA*%
X91445000Y-119725000D03*
%TD*%
D19*
%TO.P,C26,1*%
%TO.N,Net-(C26-Pad1)*%
X166568000Y-88016000D03*
%TO.P,C26,2*%
%TO.N,ADC_CTRL_2*%
X168468000Y-88016000D03*
%TD*%
D24*
%TO.P,C10,1*%
%TO.N,GNDA*%
X80015000Y-129860000D03*
%TO.P,C10,2*%
%TO.N,-12V*%
X80015000Y-127960000D03*
%TD*%
D15*
%TO.P,R12,1*%
%TO.N,Net-(C17-Pad1)*%
X109163000Y-133355000D03*
%TO.P,R12,2*%
%TO.N,Net-(C15-Pad2)*%
X109163000Y-131530000D03*
%TD*%
D16*
%TO.P,R31,1*%
%TO.N,ADC_CTRL_2*%
X168280000Y-83444000D03*
%TO.P,R31,2*%
%TO.N,Net-(C26-Pad1)*%
X166455000Y-83444000D03*
%TD*%
D19*
%TO.P,C24,1*%
%TO.N,-12V*%
X163774000Y-103510000D03*
%TO.P,C24,2*%
%TO.N,GNDA*%
X165674000Y-103510000D03*
%TD*%
D14*
%TO.P,R15,1*%
%TO.N,Net-(C18-Pad2)*%
X126370000Y-127870500D03*
%TO.P,R15,2*%
%TO.N,Net-(C18-Pad1)*%
X126370000Y-129695500D03*
%TD*%
D45*
%TO.P,C11,1*%
%TO.N,+3V3*%
X95890000Y-49240000D03*
%TO.P,C11,2*%
%TO.N,GNDA*%
X95890000Y-53640000D03*
%TD*%
D49*
%TO.P,PS1,1,+VIN*%
%TO.N,Net-(J18-Pad1)*%
X80015000Y-80650000D03*
D50*
%TO.P,PS1,2,-VIN*%
%TO.N,Net-(J18-Pad2)*%
X85115000Y-80650000D03*
%TO.P,PS1,3,+VOUT*%
%TO.N,+12V*%
X72355000Y-100950000D03*
%TO.P,PS1,4,COM*%
%TO.N,GNDA*%
X82555000Y-100950000D03*
%TO.P,PS1,5,-VOUT*%
%TO.N,-12V*%
X92755000Y-100950000D03*
%TD*%
D20*
%TO.P,R27,1*%
%TO.N,Net-(C34-Pad1)*%
X161244500Y-61854000D03*
%TO.P,R27,2*%
%TO.N,-10V*%
X163069500Y-61854000D03*
%TD*%
D51*
%TO.P,J18,1*%
%TO.N,Net-(J18-Pad1)*%
X82467000Y-50343000D03*
X82467000Y-56343000D03*
%TO.P,J18,2*%
%TO.N,Net-(J18-Pad2)*%
X71467000Y-56343000D03*
%TO.P,J18,3*%
%TO.N,N/C*%
X71467000Y-50343000D03*
%TD*%
D41*
%TO.P,C12,1*%
%TO.N,Net-(C12-Pad1)*%
X87975000Y-139705000D03*
%TO.P,C12,2*%
%TO.N,GNDA*%
X92375000Y-139705000D03*
%TD*%
D19*
%TO.P,C14,1*%
%TO.N,GNDA*%
X166163500Y-50805000D03*
%TO.P,C14,2*%
%TO.N,-10V*%
X168063500Y-50805000D03*
%TD*%
D14*
%TO.P,R35,1*%
%TO.N,Net-(C29-Pad2)*%
X107955000Y-89897500D03*
%TO.P,R35,2*%
%TO.N,Net-(C29-Pad1)*%
X107955000Y-91722500D03*
%TD*%
D15*
%TO.P,R34,1*%
%TO.N,Net-(C28-Pad2)*%
X120655000Y-99620000D03*
%TO.P,R34,2*%
%TO.N,Net-(C28-Pad1)*%
X120655000Y-97795000D03*
%TD*%
D16*
%TO.P,R3,1*%
%TO.N,+3.3VA*%
X147579000Y-67696000D03*
%TO.P,R3,2*%
%TO.N,SDMMC1_CMD*%
X145754000Y-67696000D03*
%TD*%
D15*
%TO.P,R28,1*%
%TO.N,Net-(C34-Pad1)*%
X215143000Y-63336500D03*
%TO.P,R28,2*%
%TO.N,Net-(J10-PadT)*%
X215143000Y-61511500D03*
%TD*%
D20*
%TO.P,R18,1*%
%TO.N,Net-(C25-Pad1)*%
X163049500Y-88016000D03*
%TO.P,R18,2*%
%TO.N,-10V*%
X164874500Y-88016000D03*
%TD*%
D24*
%TO.P,C15,1*%
%TO.N,Net-(C15-Pad1)*%
X109290000Y-129582500D03*
%TO.P,C15,2*%
%TO.N,Net-(C15-Pad2)*%
X109290000Y-127682500D03*
%TD*%
D23*
%TO.P,RV5,1,1*%
%TO.N,+3.3VP*%
X190363000Y-87172000D03*
%TO.P,RV5,2,2*%
%TO.N,Net-(R56-Pad2)*%
X187823000Y-89712000D03*
%TO.P,RV5,3,3*%
%TO.N,GNDA*%
X185283000Y-87172000D03*
%TD*%
D26*
%TO.P,J8,S*%
%TO.N,GNDA*%
X193553000Y-49724000D03*
D27*
%TO.P,J8,T*%
%TO.N,Net-(J8-PadT)*%
X193553000Y-61124000D03*
%TO.P,J8,TN*%
%TO.N,unconnected-(J8-PadTN)*%
X193553000Y-52824000D03*
%TD*%
D13*
%TO.P,C16,1*%
%TO.N,Net-(C16-Pad1)*%
X130815000Y-135199000D03*
%TO.P,C16,2*%
%TO.N,Net-(C16-Pad2)*%
X130815000Y-137099000D03*
%TD*%
D20*
%TO.P,R2,1*%
%TO.N,+3.3VA*%
X148444500Y-63886000D03*
%TO.P,R2,2*%
%TO.N,SDMMC1_D0*%
X150269500Y-63886000D03*
%TD*%
D52*
%TO.N,GNDA*%
X167010000Y-126353000D03*
X137800000Y-99683000D03*
X80523000Y-132720000D03*
X149385584Y-91251916D03*
X139891564Y-93781436D03*
X161295000Y-128258000D03*
X133990000Y-97143000D03*
X128910000Y-94603000D03*
X145293000Y-94095000D03*
X158660500Y-128258000D03*
%TO.N,+3.3VP*%
X103002000Y-136513000D03*
%TO.N,+5V*%
X90783000Y-131984936D03*
%TO.N,+3.3VA*%
X141737000Y-107938000D03*
X147425000Y-57435936D03*
X142597500Y-110896500D03*
X153040000Y-59043000D03*
X163835000Y-55233000D03*
X163835000Y-57773000D03*
X141483000Y-102985000D03*
%TO.N,+12V*%
X162792000Y-140493936D03*
X87127000Y-125674000D03*
X163571210Y-110758710D03*
X111611000Y-134016936D03*
X113516000Y-94265936D03*
X128121000Y-140366936D03*
X155086233Y-86060767D03*
X163643511Y-85667425D03*
X87254000Y-117506936D03*
%TO.N,-12V*%
X164940511Y-109008425D03*
X129518000Y-131984936D03*
X140186000Y-108997936D03*
X140186000Y-111156936D03*
X164978000Y-76442000D03*
X165014500Y-63341436D03*
X129418000Y-141622020D03*
X138408000Y-97440936D03*
X114786000Y-92487936D03*
%TO.N,-10V*%
X164479017Y-91680983D03*
X165105000Y-85713000D03*
X140308969Y-98413000D03*
X155580000Y-88253000D03*
X151135000Y-97778000D03*
X145420000Y-97778000D03*
X163200000Y-68568000D03*
X153040000Y-91428000D03*
%TO.N,Net-(C15-Pad1)*%
X119829500Y-135096436D03*
X119893000Y-130206936D03*
%TO.N,ADC_CTRL_1*%
X156723000Y-83046000D03*
%TO.N,Net-(C16-Pad1)*%
X130815000Y-133281936D03*
X131196000Y-141622020D03*
%TO.N,ADC_CTRL_2*%
X168280000Y-80760000D03*
%TO.N,ADC_CTRL_3*%
X141327500Y-115185000D03*
X166092500Y-110105000D03*
X169267500Y-68830000D03*
%TO.N,ADC_CTRL_4*%
X157485000Y-106668000D03*
X157485000Y-111113000D03*
X157485000Y-119368000D03*
%TO.N,Net-(C30-Pad2)*%
X127259000Y-114839936D03*
X97541000Y-114712936D03*
%TO.N,Net-(C31-Pad2)*%
X103637000Y-115728936D03*
X120972500Y-115919436D03*
%TO.N,Net-(C33-Pad2)*%
X158374000Y-123322000D03*
X162919000Y-122967936D03*
%TO.N,Net-(C34-Pad1)*%
X166375000Y-59297000D03*
X170451031Y-59284969D03*
%TO.N,ADC1_1VOCT2*%
X107955000Y-87110000D03*
X145737500Y-92380500D03*
X137673000Y-84951000D03*
X135260000Y-84951000D03*
X126243000Y-87110000D03*
%TO.N,SDMMC1_D3*%
X145225000Y-54727936D03*
X139297000Y-64166936D03*
%TO.N,SDMMC1_D2*%
X144125000Y-53750936D03*
%TO.N,SDMMC1_D1*%
X151743000Y-56292936D03*
%TO.N,SDMMC1_D0*%
X150725000Y-62218000D03*
%TO.N,SDMMC1_CMD*%
X146282000Y-56165936D03*
X143742000Y-67976936D03*
%TO.N,ENC_B*%
X134534500Y-87979436D03*
%TO.N,ENC_A*%
X134344000Y-86137936D03*
%TO.N,AUDIO_OUT_L*%
X100335000Y-92080000D03*
%TO.N,ADC1_GATE_IN*%
X218445000Y-140323000D03*
X226065000Y-115558000D03*
X159390000Y-134608000D03*
%TO.N,OLED_RST*%
X122687000Y-78347000D03*
%TO.N,Net-(C41-Pad1)*%
X155932500Y-87245000D03*
X166092500Y-89785000D03*
X148312500Y-88515000D03*
X139891564Y-91876436D03*
X152757500Y-88515000D03*
X140692500Y-89150000D03*
%TO.N,Net-(C42-Pad1)*%
X155580000Y-98413000D03*
X159390000Y-91428000D03*
%TD*%
D53*
%TO.N,GNDA*%
X114791499Y-56424511D02*
X115479511Y-55736499D01*
X218593288Y-88883712D02*
X218593288Y-100331288D01*
X165674000Y-127689000D02*
X167010000Y-126353000D01*
X118844520Y-133066552D02*
X118844520Y-131725456D01*
X116780000Y-92715000D02*
X116056064Y-92715000D01*
X164888489Y-75717489D02*
X165278103Y-75717489D01*
X116056064Y-92715000D02*
X115104489Y-91763425D01*
X167010000Y-126353000D02*
X163200000Y-126353000D01*
X165359000Y-129860000D02*
X165359000Y-133420000D01*
X113670000Y-131450000D02*
X117545000Y-131450000D01*
X220223000Y-87254000D02*
X218593288Y-88883712D01*
X116780000Y-95255000D02*
X115529678Y-95255000D01*
X149625000Y-51160000D02*
X149625000Y-48840936D01*
X150695980Y-91251916D02*
X151043000Y-91598936D01*
X170693359Y-71159663D02*
X170693359Y-63233641D01*
X164648520Y-123991520D02*
X167010000Y-126353000D01*
X97006000Y-135074000D02*
X97006000Y-130876000D01*
X167702020Y-111035480D02*
X166282448Y-111035480D01*
X144953520Y-93755520D02*
X144953520Y-91767480D01*
X162819000Y-112335000D02*
X162819000Y-110486322D01*
X138343000Y-93781436D02*
X139891564Y-93781436D01*
X80015000Y-138435000D02*
X80015000Y-140975000D01*
X91740000Y-59060000D02*
X94620000Y-59060000D01*
X97922000Y-101732000D02*
X102235000Y-106045000D01*
X81189511Y-142149511D02*
X80015000Y-140975000D01*
X119700000Y-92715000D02*
X120655000Y-93670000D01*
X149357000Y-64649453D02*
X149357000Y-51428000D01*
X154200000Y-56860000D02*
X166126000Y-56860000D01*
X112939511Y-56424511D02*
X114791499Y-56424511D01*
X162931000Y-79254357D02*
X162931000Y-79956500D01*
D54*
X80867042Y-99091936D02*
X81941553Y-100166447D01*
X94010000Y-124077507D02*
X91445000Y-121512507D01*
D53*
X145974000Y-69584000D02*
X151740993Y-69584000D01*
X74210489Y-137710489D02*
X74935000Y-138435000D01*
X218593288Y-100331288D02*
X221342500Y-103080500D01*
X177760639Y-68644361D02*
X176361000Y-70044000D01*
X97500000Y-55250000D02*
X111765000Y-55250000D01*
X118844520Y-132752416D02*
X118844520Y-133884456D01*
X165674000Y-129545000D02*
X165359000Y-129860000D01*
D54*
X91445000Y-121512507D02*
X91445000Y-119725000D01*
D53*
X166658520Y-108684520D02*
X168355750Y-110381750D01*
X112206072Y-92715000D02*
X111830000Y-92715000D01*
X165674000Y-112650000D02*
X165359000Y-112335000D01*
X162819000Y-102927507D02*
X163286027Y-102460480D01*
X165702511Y-76742103D02*
X165278103Y-77166511D01*
X111765000Y-55250000D02*
X112939511Y-56424511D01*
X92375000Y-139705000D02*
X116016072Y-139705000D01*
X87635000Y-52577500D02*
X87635000Y-54955000D01*
X165359000Y-107385000D02*
X166004480Y-108030480D01*
D54*
X91445000Y-119725000D02*
X97622000Y-119725000D01*
D53*
X139891564Y-93781436D02*
X141583000Y-93781436D01*
D54*
X82555000Y-119725000D02*
X91445000Y-119725000D01*
D53*
X163271123Y-110034199D02*
X164015899Y-110034199D01*
X118844520Y-136876552D02*
X118844520Y-134646456D01*
X115529678Y-95255000D02*
X112989678Y-92715000D01*
D54*
X80015000Y-129860000D02*
X74875978Y-129860000D01*
D53*
X166004480Y-108030480D02*
X166004480Y-108406552D01*
X117921072Y-133990000D02*
X118844520Y-133066552D01*
X149385584Y-91251916D02*
X150695980Y-91251916D01*
X113157647Y-91763425D02*
X112206072Y-92715000D01*
X118844520Y-134646456D02*
X118188064Y-133990000D01*
X162951000Y-83444000D02*
X162919000Y-83476000D01*
X165702511Y-76150511D02*
X165702511Y-76742103D01*
X170899000Y-93714000D02*
X177297000Y-87316000D01*
X170693359Y-63233641D02*
X171709000Y-62218000D01*
X163200000Y-91426565D02*
X165487435Y-93714000D01*
D54*
X73051553Y-118941447D02*
X70667042Y-116556936D01*
D53*
X97006000Y-130876000D02*
X94010000Y-127880000D01*
X187203000Y-103064000D02*
X210063000Y-103064000D01*
X111830000Y-95255000D02*
X116780000Y-95255000D01*
D54*
X71098000Y-99091936D02*
X80867042Y-99091936D01*
D53*
X145614436Y-94416436D02*
X145293000Y-94095000D01*
X166282448Y-111035480D02*
X166004480Y-111313448D01*
X165359000Y-111377300D02*
X165359000Y-112335000D01*
X177760639Y-65872186D02*
X177760639Y-68644361D01*
X140450000Y-48560000D02*
X149344064Y-48560000D01*
X162819000Y-107385000D02*
X162819000Y-102927507D01*
X165702511Y-76150511D02*
X170693359Y-71159663D01*
X77475000Y-140975000D02*
X80015000Y-138435000D01*
X117545000Y-133990000D02*
X117921072Y-133990000D01*
X118569064Y-131450000D02*
X117545000Y-131450000D01*
X168355750Y-110381750D02*
X167702020Y-111035480D01*
D54*
X82555000Y-100950000D02*
X82555000Y-119725000D01*
D53*
X163886520Y-88703973D02*
X163200000Y-89390493D01*
X122537500Y-131492500D02*
X122495000Y-131450000D01*
X115104489Y-91763425D02*
X113961489Y-91763425D01*
X162819000Y-110486322D02*
X163271123Y-110034199D01*
X221326000Y-103064000D02*
X221342500Y-103080500D01*
X165674000Y-116210000D02*
X164648520Y-117235480D01*
X149357000Y-51428000D02*
X149625000Y-51160000D01*
X158660500Y-128258000D02*
X157534500Y-127132000D01*
X164231000Y-71359000D02*
X164846000Y-70744000D01*
X165702511Y-76141897D02*
X165702511Y-76150511D01*
X117545000Y-131450000D02*
X122495000Y-131450000D01*
X149618067Y-64910520D02*
X149357000Y-64649453D01*
X145293000Y-94095000D02*
X144953520Y-93755520D01*
X113961489Y-90660417D02*
X112336552Y-89035480D01*
X113961489Y-91763425D02*
X113961489Y-90660417D01*
X151740993Y-69584000D02*
X152941020Y-68383973D01*
X102235000Y-116474000D02*
X102235000Y-106045000D01*
X164231000Y-75060000D02*
X164888489Y-75717489D01*
X121756936Y-48560000D02*
X140450000Y-48560000D01*
D54*
X94010000Y-127880000D02*
X94010000Y-124077507D01*
D53*
X116780000Y-92715000D02*
X119700000Y-92715000D01*
X74935000Y-138435000D02*
X77475000Y-140975000D01*
X80015000Y-132212000D02*
X80523000Y-132720000D01*
X166163500Y-56822500D02*
X166163500Y-50805000D01*
X126370000Y-131492500D02*
X122537500Y-131492500D01*
X164015899Y-110034199D02*
X165359000Y-111377300D01*
X115479511Y-54837425D02*
X121756936Y-48560000D01*
X115479511Y-55736499D02*
X115479511Y-54837425D01*
X165278103Y-75717489D02*
X165702511Y-76141897D01*
X167213020Y-49755480D02*
X166163500Y-50805000D01*
X164559511Y-77166511D02*
X162931000Y-75538000D01*
X154200000Y-56860000D02*
X154200000Y-48560000D01*
X166004480Y-111689520D02*
X165359000Y-112335000D01*
X146690000Y-73868000D02*
X144190000Y-71368000D01*
X89930489Y-142149511D02*
X81189511Y-142149511D01*
D54*
X74210489Y-130525489D02*
X74210489Y-137710489D01*
D53*
X95890000Y-57790000D02*
X95890000Y-53640000D01*
X118844520Y-131725456D02*
X118569064Y-131450000D01*
X210063000Y-103064000D02*
X221326000Y-103064000D01*
X144953520Y-91767480D02*
X145469084Y-91251916D01*
X152941020Y-67008027D02*
X150843513Y-64910520D01*
X163200000Y-126353000D02*
X161295000Y-128258000D01*
X97922000Y-90963936D02*
X97922000Y-101732000D01*
X164231000Y-74231500D02*
X164231000Y-75060000D01*
X107955000Y-95570000D02*
X108270000Y-95255000D01*
X149344064Y-48560000D02*
X154200000Y-48560000D01*
X162931000Y-75538000D02*
X162931000Y-74231500D01*
X137800000Y-99683000D02*
X136530000Y-99683000D01*
X163886520Y-87213040D02*
X163886520Y-88703973D01*
X141583000Y-93781436D02*
X142218000Y-93146436D01*
X145469084Y-91251916D02*
X149385584Y-91251916D01*
D54*
X80015000Y-129860000D02*
X84460000Y-129860000D01*
D53*
X162931000Y-79956500D02*
X162931000Y-83424000D01*
X221305000Y-103118000D02*
X221342500Y-103080500D01*
X108270000Y-95255000D02*
X111830000Y-95255000D01*
X116016072Y-139705000D02*
X118844520Y-136876552D01*
X164001480Y-78894480D02*
X163290877Y-78894480D01*
X111765000Y-50235936D02*
X111931000Y-50069936D01*
X165359000Y-103825000D02*
X165674000Y-103510000D01*
X112989678Y-92715000D02*
X111830000Y-92715000D01*
X179329000Y-49978000D02*
X179106480Y-49755480D01*
X92375000Y-139705000D02*
X89930489Y-142149511D01*
X162919000Y-86245520D02*
X163886520Y-87213040D01*
X112336552Y-89035480D02*
X99850456Y-89035480D01*
X77475000Y-138435000D02*
X77475000Y-140975000D01*
X174106453Y-62218000D02*
X177760639Y-65872186D01*
X122495000Y-131450000D02*
X120146936Y-131450000D01*
X149625000Y-48840936D02*
X149344064Y-48560000D01*
X164648520Y-117235480D02*
X164648520Y-123991520D01*
X95890000Y-53640000D02*
X97500000Y-55250000D01*
X147168000Y-94416436D02*
X145614436Y-94416436D01*
X123646453Y-94603000D02*
X128910000Y-94603000D01*
X136530000Y-99683000D02*
X133990000Y-97143000D01*
X87635000Y-54955000D02*
X91740000Y-59060000D01*
X147132000Y-131450000D02*
X147132000Y-129606000D01*
X166004480Y-111313448D02*
X166004480Y-111689520D01*
X99850456Y-89035480D02*
X97922000Y-90963936D01*
X74935000Y-138435000D02*
X74935000Y-140975000D01*
X149606000Y-127132000D02*
X150495000Y-126243000D01*
X118950064Y-133990000D02*
X122495000Y-133990000D01*
X111765000Y-55250000D02*
X111765000Y-50235936D01*
X163200000Y-89390493D02*
X163200000Y-91426565D01*
D54*
X97622000Y-119725000D02*
X98303000Y-120406000D01*
D53*
X165674000Y-129545000D02*
X165674000Y-127689000D01*
X113961489Y-91763425D02*
X113157647Y-91763425D01*
X166004480Y-108406552D02*
X166282448Y-108684520D01*
X179106480Y-49755480D02*
X167213020Y-49755480D01*
X144190000Y-71368000D02*
X145974000Y-69584000D01*
X92375000Y-139705000D02*
X97006000Y-135074000D01*
X165487435Y-93714000D02*
X170899000Y-93714000D01*
X165359000Y-107385000D02*
X165359000Y-103825000D01*
X164231000Y-79956500D02*
X164231000Y-79124000D01*
X166282448Y-108684520D02*
X166658520Y-108684520D01*
X140450000Y-56860000D02*
X140450000Y-48560000D01*
X150495000Y-126243000D02*
X150495000Y-121285000D01*
D54*
X74875978Y-129860000D02*
X74210489Y-130525489D01*
D53*
X146690000Y-85868000D02*
X146690000Y-73868000D01*
X166126000Y-56860000D02*
X166163500Y-56822500D01*
D54*
X70667042Y-99522894D02*
X71098000Y-99091936D01*
D53*
X94620000Y-59060000D02*
X95890000Y-57790000D01*
X118188064Y-133990000D02*
X117545000Y-133990000D01*
X164231000Y-74231500D02*
X164231000Y-71359000D01*
X118844520Y-133884456D02*
X118950064Y-133990000D01*
X163286027Y-102460480D02*
X164624480Y-102460480D01*
X120655000Y-93670000D02*
X122713453Y-93670000D01*
X163290877Y-78894480D02*
X162931000Y-79254357D01*
X147132000Y-129606000D02*
X149606000Y-127132000D01*
X165674000Y-116210000D02*
X165674000Y-112650000D01*
X164624480Y-102460480D02*
X165674000Y-103510000D01*
X165278103Y-77166511D02*
X164559511Y-77166511D01*
X80015000Y-129860000D02*
X80015000Y-132212000D01*
X171709000Y-62218000D02*
X174106453Y-62218000D01*
X150843513Y-64910520D02*
X149618067Y-64910520D01*
X122713453Y-93670000D02*
X123646453Y-94603000D01*
X157534500Y-127132000D02*
X149606000Y-127132000D01*
X162931000Y-83424000D02*
X162951000Y-83444000D01*
X98303000Y-120406000D02*
X102235000Y-116474000D01*
D54*
X70667042Y-116556936D02*
X70667042Y-99522894D01*
D53*
X152941020Y-68383973D02*
X152941020Y-67008027D01*
X162919000Y-83476000D02*
X162919000Y-86245520D01*
X164231000Y-79124000D02*
X164001480Y-78894480D01*
X221305000Y-106207000D02*
X221305000Y-103118000D01*
%TO.N,+3.3VP*%
X211541511Y-71268511D02*
X223570489Y-71268511D01*
X99324000Y-121285000D02*
X102235000Y-121285000D01*
X102235000Y-128555978D02*
X102235000Y-121285000D01*
X103002000Y-129322978D02*
X102235000Y-128555978D01*
X223570489Y-71268511D02*
X224795000Y-70044000D01*
X98303000Y-122306000D02*
X99324000Y-121285000D01*
X210317000Y-70044000D02*
X211541511Y-71268511D01*
X103002000Y-136513000D02*
X103002000Y-129322978D01*
%TO.N,+5V*%
X163774000Y-129545000D02*
X164089000Y-129860000D01*
X92587936Y-130180000D02*
X90783000Y-131984936D01*
X147955000Y-121285000D02*
X147955000Y-126883000D01*
X164089000Y-133420000D02*
X164089000Y-133796072D01*
X163165552Y-134719520D02*
X162472448Y-134719520D01*
X91445000Y-127615000D02*
X94010000Y-130180000D01*
X159385000Y-131632072D02*
X159385000Y-126008493D01*
X162472448Y-134719520D02*
X159385000Y-131632072D01*
X164089000Y-133796072D02*
X163165552Y-134719520D01*
X159385000Y-126008493D02*
X153536996Y-120160489D01*
X153536996Y-120160489D02*
X149079511Y-120160489D01*
X164089000Y-129860000D02*
X164089000Y-133420000D01*
X94010000Y-130180000D02*
X92587936Y-130180000D01*
X91445000Y-124125000D02*
X91445000Y-127615000D01*
X147955000Y-126883000D02*
X147706000Y-127132000D01*
X149079511Y-120160489D02*
X147955000Y-121285000D01*
%TO.N,+3.3VA*%
X145415000Y-131267000D02*
X145232000Y-131450000D01*
X141483000Y-102985000D02*
X141483000Y-107684000D01*
X153040000Y-59043000D02*
X162565000Y-59043000D01*
X145443500Y-63886000D02*
X141887500Y-67442000D01*
X147425000Y-57435936D02*
X147070936Y-57790000D01*
X145415000Y-113267000D02*
X145415000Y-121285000D01*
X145415000Y-121285000D02*
X145415000Y-131267000D01*
X145443500Y-63886000D02*
X147070936Y-63886000D01*
X224717011Y-116282511D02*
X226610489Y-116282511D01*
X147579000Y-67696000D02*
X147579000Y-64751500D01*
X141887500Y-67442000D02*
X141276000Y-67442000D01*
X221493000Y-113058500D02*
X224717011Y-116282511D01*
X226610489Y-116282511D02*
X228779520Y-114113480D01*
X163835000Y-51596007D02*
X163835000Y-55233000D01*
X147425000Y-51160000D02*
X147425000Y-57435936D01*
X211460000Y-48248000D02*
X167183007Y-48248000D01*
X147070936Y-63886000D02*
X148444500Y-63886000D01*
X147579000Y-64751500D02*
X148444500Y-63886000D01*
X228779520Y-114113480D02*
X228779520Y-65567520D01*
X142597500Y-110896500D02*
X143044500Y-110896500D01*
X228779520Y-65567520D02*
X211460000Y-48248000D01*
X143044500Y-110896500D02*
X145415000Y-113267000D01*
X162565000Y-59043000D02*
X163835000Y-57773000D01*
X147070936Y-57790000D02*
X147070936Y-63886000D01*
X147579000Y-67696000D02*
X152104000Y-67696000D01*
X167183007Y-48248000D02*
X163835000Y-51596007D01*
X141483000Y-107684000D02*
X141737000Y-107938000D01*
%TO.N,+12V*%
X95890000Y-59690000D02*
X95890000Y-109759936D01*
D54*
X74935000Y-127740000D02*
X78550000Y-124125000D01*
D53*
X107955000Y-93670000D02*
X111515000Y-93670000D01*
X164851000Y-83444000D02*
X164851000Y-84459936D01*
D54*
X113516000Y-94265936D02*
X112110936Y-94265936D01*
D53*
X86685000Y-58405000D02*
X87340000Y-59060000D01*
X88143000Y-117506936D02*
X87254000Y-117506936D01*
D54*
X72355000Y-100950000D02*
X74935000Y-103530000D01*
D53*
X147168000Y-90606436D02*
X148147282Y-90606436D01*
X95260000Y-59060000D02*
X95255718Y-59060000D01*
D54*
X78550000Y-124125000D02*
X82555000Y-124125000D01*
D53*
X89502500Y-127960000D02*
X89540000Y-127997500D01*
X88509936Y-60229936D02*
X95350064Y-60229936D01*
X88585000Y-52193928D02*
X87858008Y-51466936D01*
D54*
X84460000Y-127960000D02*
X89502500Y-127960000D01*
X128164936Y-140323000D02*
X162621064Y-140323000D01*
D53*
X163571210Y-110758710D02*
X164089000Y-111276500D01*
D54*
X128121000Y-140366936D02*
X128164936Y-140323000D01*
D53*
X163774000Y-112650000D02*
X164089000Y-112335000D01*
X163774000Y-116210000D02*
X163774000Y-112650000D01*
X95890000Y-109759936D02*
X88143000Y-117506936D01*
D54*
X84460000Y-126030000D02*
X84460000Y-127960000D01*
X82555000Y-124125000D02*
X84460000Y-126030000D01*
X89450500Y-127997500D02*
X87127000Y-125674000D01*
D53*
X111515000Y-93670000D02*
X111830000Y-93985000D01*
X149054782Y-89698936D02*
X151043000Y-89698936D01*
X164851000Y-84459936D02*
X163643511Y-85667425D01*
D54*
X74935000Y-103530000D02*
X74935000Y-127740000D01*
D53*
X95350064Y-60229936D02*
X95890000Y-59690000D01*
X87411992Y-51466936D02*
X86685000Y-52193928D01*
X148147282Y-90606436D02*
X149054782Y-89698936D01*
X113670000Y-133350000D02*
X112277936Y-133350000D01*
D54*
X153306733Y-86060767D02*
X151043000Y-88324500D01*
D53*
X163581000Y-82174000D02*
X164851000Y-83444000D01*
X112277936Y-133350000D02*
X111611000Y-134016936D01*
X116915000Y-133350000D02*
X117545000Y-132720000D01*
X88585000Y-52577500D02*
X88585000Y-52193928D01*
X164089000Y-111276500D02*
X164089000Y-112335000D01*
X89540000Y-127997500D02*
X89450500Y-127997500D01*
X87340000Y-59060000D02*
X88509936Y-60229936D01*
X113670000Y-133350000D02*
X116915000Y-133350000D01*
D54*
X155086233Y-86060767D02*
X153306733Y-86060767D01*
X112110936Y-94265936D02*
X111830000Y-93985000D01*
X162621064Y-140323000D02*
X162792000Y-140493936D01*
D53*
X163581000Y-79956500D02*
X163581000Y-82174000D01*
X87858008Y-51466936D02*
X87411992Y-51466936D01*
X86685000Y-52577500D02*
X86685000Y-58405000D01*
X86685000Y-52193928D02*
X86685000Y-52577500D01*
D54*
X151043000Y-88324500D02*
X151043000Y-89698936D01*
D53*
X95890000Y-59690000D02*
X95260000Y-59060000D01*
%TO.N,-12V*%
X164089000Y-107385000D02*
X164089000Y-103825000D01*
D54*
X69828000Y-142906936D02*
X69828000Y-125173000D01*
X80015000Y-127960000D02*
X79410489Y-128564511D01*
X69828000Y-98764936D02*
X69828000Y-125173000D01*
D53*
X140953000Y-95681436D02*
X142218000Y-94416436D01*
D54*
X72395000Y-127740000D02*
X73219511Y-128564511D01*
D53*
X116780000Y-93985000D02*
X116283064Y-93985000D01*
D54*
X69828000Y-125173000D02*
X72395000Y-127740000D01*
X72395000Y-127740000D02*
X72395000Y-125395000D01*
X89985558Y-142906936D02*
X69828000Y-142906936D01*
D53*
X138343000Y-95681436D02*
X138343000Y-97375936D01*
X138343000Y-97375936D02*
X138408000Y-97440936D01*
X138343000Y-95681436D02*
X140953000Y-95681436D01*
D54*
X116283064Y-93985000D02*
X114786000Y-92487936D01*
X129418000Y-141622020D02*
X129320020Y-141720000D01*
D53*
X160408800Y-108835000D02*
X160245864Y-108997936D01*
D54*
X91172494Y-141720000D02*
X89985558Y-142906936D01*
D53*
X128110436Y-133392500D02*
X129518000Y-131984936D01*
X164940511Y-109008425D02*
X164767086Y-108835000D01*
X126370000Y-133392500D02*
X128110436Y-133392500D01*
D54*
X71660000Y-96932936D02*
X69828000Y-98764936D01*
D53*
X164852679Y-76442000D02*
X163581000Y-75170321D01*
X167491000Y-63047436D02*
X165308500Y-63047436D01*
X119070000Y-93985000D02*
X120655000Y-95570000D01*
X164089000Y-103825000D02*
X163774000Y-103510000D01*
X165308500Y-63047436D02*
X165014500Y-63341436D01*
D54*
X73219511Y-128564511D02*
X79410489Y-128564511D01*
D53*
X125697500Y-132720000D02*
X122495000Y-132720000D01*
X163581000Y-71379000D02*
X163581000Y-74231500D01*
X116780000Y-93985000D02*
X119070000Y-93985000D01*
D54*
X160245864Y-108997936D02*
X140186000Y-108997936D01*
D53*
X163581000Y-75170321D02*
X163581000Y-74231500D01*
D54*
X129320020Y-141720000D02*
X91172494Y-141720000D01*
X88737936Y-96932936D02*
X71660000Y-96932936D01*
D53*
X164978000Y-76442000D02*
X164852679Y-76442000D01*
X164089000Y-107385000D02*
X164089000Y-108156914D01*
X126370000Y-133392500D02*
X125697500Y-132720000D01*
D54*
X92755000Y-100950000D02*
X88737936Y-96932936D01*
X140186000Y-108997936D02*
X140186000Y-111156936D01*
X164767086Y-108835000D02*
X160408800Y-108835000D01*
D53*
X162946000Y-70744000D02*
X163581000Y-71379000D01*
X164089000Y-108156914D02*
X164940511Y-109008425D01*
X140186000Y-111156936D02*
X140313000Y-111283936D01*
D54*
X72395000Y-125395000D02*
X73665000Y-124125000D01*
D53*
%TO.N,+3V3*%
X96109584Y-49020416D02*
X112781480Y-49020416D01*
X86685000Y-50302500D02*
X87747500Y-49240000D01*
X114305000Y-50543936D02*
X113831000Y-50069936D01*
X95890000Y-49240000D02*
X96109584Y-49020416D01*
X112781480Y-49020416D02*
X113831000Y-50069936D01*
X114305000Y-55250000D02*
X114305000Y-50543936D01*
X87747500Y-49240000D02*
X95890000Y-49240000D01*
%TO.N,Net-(C12-Pad1)*%
X87070000Y-132292500D02*
X89540000Y-129822500D01*
X83535480Y-135265480D02*
X83535480Y-133217020D01*
X83535480Y-133217020D02*
X84460000Y-132292500D01*
X84460000Y-132292500D02*
X87070000Y-132292500D01*
X87975000Y-139705000D02*
X83535480Y-135265480D01*
%TO.N,-10V*%
X165698483Y-91680983D02*
X166605500Y-92588000D01*
X163069500Y-61854000D02*
X163069500Y-66228200D01*
X165105000Y-87785500D02*
X164874500Y-88016000D01*
X166859436Y-61854000D02*
X167491000Y-61222436D01*
X155553000Y-89693936D02*
X155553000Y-88280000D01*
X164479017Y-91680983D02*
X165698483Y-91680983D01*
X164479017Y-91680983D02*
X164479017Y-88411483D01*
X167491000Y-61222436D02*
X167491000Y-57395000D01*
X163200000Y-66500300D02*
X163200000Y-68568000D01*
X165105000Y-85713000D02*
X165105000Y-87785500D01*
X168063500Y-56822500D02*
X168063500Y-50805000D01*
X133963000Y-95686436D02*
X136689564Y-98413000D01*
X155553000Y-88280000D02*
X155580000Y-88253000D01*
X155553000Y-89693936D02*
X154774064Y-89693936D01*
X136689564Y-98413000D02*
X140308969Y-98413000D01*
X163069500Y-61854000D02*
X166859436Y-61854000D01*
X162998700Y-66299000D02*
X163200000Y-66500300D01*
X164479017Y-88411483D02*
X164874500Y-88016000D01*
X151135000Y-97778000D02*
X145420000Y-97778000D01*
X167491000Y-57395000D02*
X168063500Y-56822500D01*
X154774064Y-89693936D02*
X153040000Y-91428000D01*
X163069500Y-66228200D02*
X162998700Y-66299000D01*
%TO.N,Net-(C15-Pad1)*%
X109290000Y-129582500D02*
X113632500Y-129582500D01*
X221192958Y-124872936D02*
X222128000Y-125807978D01*
X119829500Y-135096436D02*
X119893000Y-135032936D01*
X120026447Y-141091447D02*
X119829500Y-140894500D01*
X218801619Y-141218447D02*
X162491897Y-141218447D01*
X162491897Y-141218447D02*
X162170970Y-140897520D01*
X189111436Y-124872936D02*
X221192958Y-124872936D01*
X222128000Y-137892066D02*
X218801619Y-141218447D01*
X222128000Y-125807978D02*
X222128000Y-137892066D01*
X119829500Y-140894500D02*
X119829500Y-135096436D01*
X179432500Y-115194000D02*
X189111436Y-124872936D01*
X128421103Y-141091447D02*
X120026447Y-141091447D01*
X113670000Y-129545000D02*
X116910000Y-129545000D01*
X119893000Y-130206936D02*
X119866064Y-130180000D01*
X162170970Y-140897520D02*
X128615030Y-140897520D01*
X117545000Y-130180000D02*
X119866064Y-130180000D01*
X113632500Y-129582500D02*
X113670000Y-129545000D01*
X128615030Y-140897520D02*
X128421103Y-141091447D01*
X116910000Y-129545000D02*
X117545000Y-130180000D01*
%TO.N,ADC_CTRL_1*%
X159456000Y-83481500D02*
X159493500Y-83444000D01*
X157121000Y-83444000D02*
X156723000Y-83046000D01*
X159493500Y-83444000D02*
X159493500Y-82094000D01*
X159456000Y-88016000D02*
X159456000Y-83481500D01*
X159493500Y-83444000D02*
X157121000Y-83444000D01*
X159493500Y-82094000D02*
X161631000Y-79956500D01*
%TO.N,Net-(C16-Pad1)*%
X222701956Y-138014980D02*
X222701956Y-125746217D01*
X131470980Y-141347040D02*
X161984772Y-141347040D01*
X126370000Y-135236500D02*
X122518500Y-135236500D01*
X222701956Y-125746217D02*
X213216175Y-116260436D01*
X130815000Y-135199000D02*
X130815000Y-133281936D01*
X126370000Y-135236500D02*
X130777500Y-135236500D01*
X219048969Y-141667967D02*
X222701956Y-138014980D01*
X162305699Y-141667967D02*
X219048969Y-141667967D01*
X130777500Y-135236500D02*
X130815000Y-135199000D01*
X131196000Y-141622020D02*
X131470980Y-141347040D01*
X130815000Y-133281936D02*
X130788000Y-133254936D01*
X161984772Y-141347040D02*
X162305699Y-141667967D01*
X203612936Y-116260436D02*
X202292500Y-114940000D01*
X213216175Y-116260436D02*
X203612936Y-116260436D01*
X122518500Y-135236500D02*
X122495000Y-135260000D01*
%TO.N,ADC_CTRL_2*%
X168280000Y-83444000D02*
X168280000Y-80760000D01*
X165531000Y-80695000D02*
X168280000Y-83444000D01*
X168280000Y-87828000D02*
X168468000Y-88016000D01*
X165531000Y-79956500D02*
X165531000Y-80695000D01*
X168280000Y-83444000D02*
X168280000Y-87828000D01*
%TO.N,Net-(C17-Pad1)*%
X109163000Y-135302500D02*
X113697500Y-135302500D01*
X113697500Y-135302500D02*
X113735000Y-135340000D01*
X117465000Y-135340000D02*
X117545000Y-135260000D01*
X109163000Y-133355000D02*
X109163000Y-135302500D01*
X113735000Y-135340000D02*
X117465000Y-135340000D01*
%TO.N,ADC_CTRL_3*%
X167978493Y-70744000D02*
X168341000Y-70744000D01*
X168341000Y-70744000D02*
X168341000Y-66336500D01*
X164822500Y-110105000D02*
X166092500Y-110105000D01*
X165531000Y-74231500D02*
X165531000Y-73191493D01*
X165531000Y-73191493D02*
X167978493Y-70744000D01*
X141327500Y-110139436D02*
X141361936Y-110105000D01*
X162917500Y-109470000D02*
X164187500Y-109470000D01*
X141361936Y-110105000D02*
X162282500Y-110105000D01*
X141327500Y-115185000D02*
X141327500Y-110139436D01*
X168341000Y-70744000D02*
X168341000Y-69756500D01*
X162282500Y-110105000D02*
X162917500Y-109470000D01*
X168341000Y-69756500D02*
X169267500Y-68830000D01*
X164187500Y-109470000D02*
X164822500Y-110105000D01*
X168341000Y-66336500D02*
X168303500Y-66299000D01*
%TO.N,Net-(C18-Pad1)*%
X130777500Y-129695500D02*
X130815000Y-129733000D01*
X125885500Y-130180000D02*
X122495000Y-130180000D01*
X130815000Y-130791500D02*
X135260000Y-135236500D01*
X126370000Y-129695500D02*
X125885500Y-130180000D01*
X130815000Y-129733000D02*
X130815000Y-130791500D01*
X126370000Y-129695500D02*
X130777500Y-129695500D01*
%TO.N,ADC_CTRL_4*%
X157485000Y-119368000D02*
X157485000Y-111113000D01*
X155998489Y-84861489D02*
X157485000Y-86348000D01*
X161631000Y-74231500D02*
X155998489Y-79864011D01*
X159493500Y-70744000D02*
X159493500Y-66336500D01*
X157485000Y-86348000D02*
X157485000Y-106668000D01*
X159493500Y-66336500D02*
X159456000Y-66299000D01*
X161631000Y-72881500D02*
X159493500Y-70744000D01*
X155998489Y-79864011D02*
X155998489Y-84861489D01*
X161631000Y-74231500D02*
X161631000Y-72881500D01*
%TO.N,Net-(J12-PadT)*%
X171800500Y-138086000D02*
X177297000Y-138086000D01*
X170920000Y-138966500D02*
X171800500Y-138086000D01*
%TO.N,Net-(J13-PadT)*%
X184763000Y-138612436D02*
X185543436Y-137832000D01*
X185543436Y-137832000D02*
X191521000Y-137832000D01*
%TO.N,Net-(J14-PadT)*%
X213676505Y-131285505D02*
X176724569Y-131285505D01*
X176724569Y-131285505D02*
X172188520Y-126749456D01*
X164487000Y-93985000D02*
X161826500Y-93985000D01*
X172188520Y-100232027D02*
X168210493Y-96254000D01*
X168210493Y-96254000D02*
X166756000Y-96254000D01*
X166756000Y-96254000D02*
X164487000Y-93985000D01*
X220223000Y-137832000D02*
X213676505Y-131285505D01*
X172188520Y-126749456D02*
X172188520Y-100232027D01*
%TO.N,Net-(J15-PadT)*%
X176620333Y-134794612D02*
X179523388Y-134794612D01*
X179710000Y-134608000D02*
X202521000Y-134608000D01*
X171351500Y-124999936D02*
X171351500Y-129525779D01*
X171351500Y-129525779D02*
X176620333Y-134794612D01*
X179523388Y-134794612D02*
X179710000Y-134608000D01*
X202521000Y-134608000D02*
X205745000Y-137832000D01*
%TO.N,Net-(C27-Pad1)*%
X164881000Y-72304000D02*
X166441000Y-70744000D01*
X166441000Y-66336500D02*
X166478500Y-66299000D01*
X200919000Y-63186000D02*
X197467489Y-59734489D01*
X166478500Y-66299000D02*
X164823700Y-66299000D01*
X164881000Y-74231500D02*
X164881000Y-72304000D01*
X166478500Y-65670500D02*
X166478500Y-66299000D01*
X172414511Y-59734489D02*
X166478500Y-65670500D01*
X204159000Y-66426000D02*
X206102500Y-66426000D01*
X197467489Y-59734489D02*
X172414511Y-59734489D01*
X166441000Y-70744000D02*
X166441000Y-66336500D01*
X200919000Y-63186000D02*
X204159000Y-66426000D01*
%TO.N,ADC1_1VOCT1*%
X139210489Y-111206039D02*
X139210489Y-105266125D01*
X141940500Y-90328936D02*
X142218000Y-90606436D01*
X138281000Y-113950936D02*
X140350489Y-111881447D01*
X143517520Y-91529884D02*
X142594072Y-90606436D01*
X140758489Y-102684897D02*
X142245000Y-101198386D01*
X119993000Y-113950936D02*
X138281000Y-113950936D01*
X138305500Y-90291436D02*
X138343000Y-90328936D01*
X140758489Y-103285103D02*
X140758489Y-102684897D01*
X138343000Y-90328936D02*
X141940500Y-90328936D01*
X142245000Y-101198386D02*
X142245000Y-96035508D01*
X114935000Y-121285000D02*
X114935000Y-119008936D01*
X133898000Y-90291436D02*
X138305500Y-90291436D01*
X114935000Y-119008936D02*
X119993000Y-113950936D01*
X140350489Y-111881447D02*
X139885897Y-111881447D01*
X139885897Y-111881447D02*
X139210489Y-111206039D01*
X140975000Y-103501614D02*
X140758489Y-103285103D01*
X139210489Y-105266125D02*
X140975000Y-103501614D01*
X142594072Y-90606436D02*
X142218000Y-90606436D01*
X142245000Y-96035508D02*
X143517520Y-94762988D01*
X143517520Y-94762988D02*
X143517520Y-91529884D01*
%TO.N,Net-(C28-Pad1)*%
X125062500Y-97795000D02*
X125100000Y-97757500D01*
X116780000Y-96525000D02*
X117156072Y-96525000D01*
X128588064Y-97757500D02*
X128629000Y-97798436D01*
X125100000Y-97757500D02*
X128588064Y-97757500D01*
X118426072Y-97795000D02*
X120655000Y-97795000D01*
X120655000Y-97795000D02*
X125062500Y-97795000D01*
X117156072Y-96525000D02*
X118426072Y-97795000D01*
%TO.N,Net-(C28-Pad2)*%
X115421000Y-96237928D02*
X115421000Y-96812072D01*
X115421000Y-96812072D02*
X116403928Y-97795000D01*
X125100000Y-95532500D02*
X124237980Y-96394520D01*
X118295592Y-96394520D02*
X117801552Y-95900480D01*
X118605000Y-99620000D02*
X120655000Y-99620000D01*
X124237980Y-96394520D02*
X118295592Y-96394520D01*
X120655000Y-99620000D02*
X125062500Y-99620000D01*
X117801552Y-95900480D02*
X115758448Y-95900480D01*
X115758448Y-95900480D02*
X115421000Y-96237928D01*
X125062500Y-99620000D02*
X125100000Y-99657500D01*
X116403928Y-97795000D02*
X116780000Y-97795000D01*
X116780000Y-97795000D02*
X118605000Y-99620000D01*
%TO.N,Net-(C29-Pad1)*%
X107917500Y-91760000D02*
X107955000Y-91722500D01*
X103510000Y-91760000D02*
X107917500Y-91760000D01*
X107955000Y-91722500D02*
X111552500Y-91722500D01*
X103510000Y-93707500D02*
X103510000Y-91760000D01*
X111552500Y-91722500D02*
X111830000Y-91445000D01*
%TO.N,Net-(C29-Pad2)*%
X107955000Y-89897500D02*
X103547500Y-89897500D01*
X99065000Y-90556000D02*
X99065000Y-93985000D01*
X108232500Y-90175000D02*
X107955000Y-89897500D01*
X103547500Y-89897500D02*
X103510000Y-89860000D01*
X111830000Y-90175000D02*
X108232500Y-90175000D01*
X103510000Y-89860000D02*
X99761000Y-89860000D01*
X99761000Y-89860000D02*
X99065000Y-90556000D01*
%TO.N,Net-(C30-Pad1)*%
X120377500Y-91445000D02*
X120655000Y-91722500D01*
X116780000Y-91445000D02*
X120377500Y-91445000D01*
X120655000Y-91722500D02*
X125062500Y-91722500D01*
X125100000Y-91760000D02*
X125100000Y-93707500D01*
X125062500Y-91722500D02*
X125100000Y-91760000D01*
%TO.N,Net-(C30-Pad2)*%
X171019869Y-135716376D02*
X147881440Y-135716376D01*
X171999982Y-136696489D02*
X171019869Y-135716376D01*
X115190960Y-88585960D02*
X116780000Y-90175000D01*
X184672053Y-136696489D02*
X171999982Y-136696489D01*
X97541000Y-114712936D02*
X97414000Y-114585936D01*
X116780000Y-90175000D02*
X120377500Y-90175000D01*
X120377500Y-90175000D02*
X120655000Y-89897500D01*
X125062500Y-89897500D02*
X125100000Y-89860000D01*
X120655000Y-89897500D02*
X125062500Y-89897500D01*
X144150000Y-131984936D02*
X144150000Y-119538219D01*
X97414000Y-114585936D02*
X97414000Y-90836219D01*
X147881440Y-135716376D02*
X144150000Y-131984936D01*
X99664259Y-88585960D02*
X115190960Y-88585960D01*
X139451717Y-114839936D02*
X127259000Y-114839936D01*
X97414000Y-90836219D02*
X99664259Y-88585960D01*
X184763000Y-136787436D02*
X184672053Y-136696489D01*
X144150000Y-119538219D02*
X139451717Y-114839936D01*
%TO.N,Net-(C31-Pad1)*%
X103547500Y-97517500D02*
X103510000Y-97480000D01*
X103510000Y-97480000D02*
X100735000Y-97480000D01*
X107955000Y-97517500D02*
X103547500Y-97517500D01*
X100735000Y-97480000D02*
X99065000Y-95810000D01*
X108947500Y-96525000D02*
X107955000Y-97517500D01*
X111830000Y-96525000D02*
X108947500Y-96525000D01*
%TO.N,Net-(C31-Pad2)*%
X109502500Y-97795000D02*
X111830000Y-97795000D01*
X103510000Y-105719700D02*
X103510000Y-115601936D01*
X103510000Y-115601936D02*
X103637000Y-115728936D01*
X120972500Y-115919436D02*
X120909000Y-115855936D01*
X103510000Y-99380000D02*
X107917500Y-99380000D01*
X141459511Y-117483447D02*
X139959000Y-115982936D01*
X170920000Y-137141500D02*
X169944396Y-136165896D01*
X147671114Y-136165896D02*
X141459511Y-129954293D01*
X139959000Y-115982936D02*
X121036000Y-115982936D01*
X107955000Y-99342500D02*
X109502500Y-97795000D01*
X111830000Y-97795000D02*
X111434700Y-97795000D01*
X141459511Y-129954293D02*
X141459511Y-117483447D01*
X111434700Y-97795000D02*
X103510000Y-105719700D01*
X169944396Y-136165896D02*
X147671114Y-136165896D01*
X121036000Y-115982936D02*
X120972500Y-115919436D01*
X107917500Y-99380000D02*
X107955000Y-99342500D01*
%TO.N,Net-(C32-Pad1)*%
X170308520Y-111440592D02*
X166629000Y-107761072D01*
X166629000Y-107385000D02*
X166629000Y-104502500D01*
X167621500Y-99102500D02*
X167584000Y-99065000D01*
X166629000Y-107761072D02*
X166629000Y-107385000D01*
X166629000Y-104502500D02*
X167621500Y-103510000D01*
X170308520Y-127492980D02*
X170308520Y-111440592D01*
X169042000Y-128759500D02*
X170308520Y-127492980D01*
X167621500Y-103510000D02*
X167621500Y-99102500D01*
%TO.N,Net-(C32-Pad2)*%
X169446500Y-103510000D02*
X169446500Y-99102500D01*
X166686020Y-98015480D02*
X165636500Y-99065000D01*
X169446500Y-99102500D02*
X169484000Y-99065000D01*
X169484000Y-99065000D02*
X168434480Y-98015480D01*
X167899000Y-107385000D02*
X167899000Y-105057500D01*
X168434480Y-98015480D02*
X166686020Y-98015480D01*
X167899000Y-105057500D02*
X169446500Y-103510000D01*
%TO.N,Net-(C33-Pad1)*%
X161549000Y-115932500D02*
X161549000Y-112335000D01*
X161826500Y-125100000D02*
X161826500Y-120692500D01*
X161826500Y-120692500D02*
X161864000Y-120655000D01*
X161826500Y-120617500D02*
X161826500Y-116210000D01*
X161864000Y-120655000D02*
X161826500Y-120617500D01*
X161826500Y-116210000D02*
X161549000Y-115932500D01*
%TO.N,Net-(C33-Pad2)*%
X159964000Y-116247500D02*
X160001500Y-116210000D01*
X160001500Y-116210000D02*
X160001500Y-112612500D01*
X158374000Y-122245000D02*
X158374000Y-123322000D01*
X163811500Y-122075436D02*
X163811500Y-120655000D01*
X159964000Y-120655000D02*
X159964000Y-116247500D01*
X160001500Y-112612500D02*
X160279000Y-112335000D01*
X159964000Y-120655000D02*
X158374000Y-122245000D01*
X162919000Y-122967936D02*
X163811500Y-122075436D01*
%TO.N,Net-(C34-Pad1)*%
X162281000Y-71706500D02*
X161318500Y-70744000D01*
X215143000Y-63336500D02*
X211091469Y-59284969D01*
X220223000Y-66426000D02*
X218232500Y-66426000D01*
X161318500Y-66336500D02*
X161356000Y-66299000D01*
X211091469Y-59284969D02*
X170451031Y-59284969D01*
X161356000Y-66299000D02*
X161356000Y-61965500D01*
X218232500Y-66426000D02*
X215143000Y-63336500D01*
X163801500Y-59297000D02*
X166375000Y-59297000D01*
X161318500Y-70744000D02*
X161318500Y-66336500D01*
X162281000Y-74231500D02*
X162281000Y-71706500D01*
X161244500Y-61854000D02*
X163801500Y-59297000D01*
X170439000Y-59297000D02*
X170451031Y-59284969D01*
X161356000Y-61965500D02*
X161244500Y-61854000D01*
%TO.N,ADC1_1VOCT2*%
X107955000Y-87110000D02*
X126243000Y-87110000D01*
X149959436Y-93503936D02*
X151043000Y-93503936D01*
X135260000Y-84951000D02*
X137673000Y-84951000D01*
X146241564Y-91876436D02*
X145737500Y-92380500D01*
X151043000Y-93503936D02*
X155488000Y-93503936D01*
X148331936Y-91876436D02*
X149959436Y-93503936D01*
X145737500Y-92380500D02*
X145674000Y-92444000D01*
X126243000Y-87110000D02*
X126370000Y-87110000D01*
X147168000Y-91876436D02*
X148331936Y-91876436D01*
X147168000Y-91876436D02*
X146241564Y-91876436D01*
%TO.N,Net-(C35-Pad1)*%
X161826500Y-99102500D02*
X161864000Y-99065000D01*
X161549000Y-103787500D02*
X161826500Y-103510000D01*
X161826500Y-103510000D02*
X161826500Y-99102500D01*
X161549000Y-107385000D02*
X161549000Y-103787500D01*
X161864000Y-99065000D02*
X163811500Y-99065000D01*
%TO.N,Net-(C35-Pad2)*%
X160001500Y-99102500D02*
X159964000Y-99065000D01*
X160279000Y-107385000D02*
X160279000Y-103787500D01*
X159964000Y-94022500D02*
X160001500Y-93985000D01*
X160279000Y-103787500D02*
X160001500Y-103510000D01*
X159964000Y-99065000D02*
X159964000Y-94022500D01*
X160001500Y-103510000D02*
X160001500Y-99102500D01*
%TO.N,Net-(C36-Pad1)*%
X165636500Y-120655000D02*
X167584000Y-120655000D01*
X166629000Y-115217500D02*
X166629000Y-112335000D01*
X167584000Y-116247500D02*
X167621500Y-116210000D01*
X167584000Y-120655000D02*
X167584000Y-116247500D01*
X167621500Y-116210000D02*
X166629000Y-115217500D01*
%TO.N,Net-(C36-Pad2)*%
X167899000Y-112335000D02*
X167899000Y-114662500D01*
X169446500Y-116210000D02*
X169446500Y-120617500D01*
X169446500Y-125100000D02*
X169550000Y-125100000D01*
X169446500Y-120617500D02*
X169484000Y-120655000D01*
X169484000Y-120655000D02*
X169484000Y-125062500D01*
X167899000Y-114662500D02*
X169446500Y-116210000D01*
X169484000Y-125062500D02*
X169446500Y-125100000D01*
%TO.N,ENC_CLICK*%
X153614511Y-75792511D02*
X149190000Y-71368000D01*
X156987040Y-86485758D02*
X155548969Y-85047687D01*
X153614511Y-83022011D02*
X153614511Y-75792511D01*
X156987040Y-99552960D02*
X156987040Y-86485758D01*
X155548969Y-85047687D02*
X155548969Y-84956469D01*
X155548969Y-84956469D02*
X153614511Y-83022011D01*
X150495000Y-106045000D02*
X156987040Y-99552960D01*
%TO.N,SDMMC1_D3*%
X139451000Y-64320936D02*
X139297000Y-64166936D01*
X145266000Y-54768936D02*
X145225000Y-54727936D01*
X145225000Y-51160000D02*
X145225000Y-54727936D01*
X139451000Y-67442000D02*
X139451000Y-64320936D01*
%TO.N,SDMMC1_D2*%
X143618500Y-54257436D02*
X144125000Y-53750936D01*
X143618500Y-63886000D02*
X143618500Y-54257436D01*
X144125000Y-51160000D02*
X144125000Y-53750936D01*
%TO.N,SDMMC1_D1*%
X144504000Y-91090936D02*
X145613020Y-89981916D01*
X150600000Y-75215936D02*
X147833000Y-72448936D01*
X142875000Y-106045000D02*
X144504000Y-104416000D01*
X151825000Y-51160000D02*
X151825000Y-56210936D01*
X148136084Y-89981916D02*
X150600000Y-87518000D01*
X147833000Y-70851857D02*
X148641368Y-70043489D01*
X153929000Y-69584000D02*
X153929000Y-67696000D01*
X148641368Y-70043489D02*
X149738632Y-70043489D01*
X149787143Y-70092000D02*
X153421000Y-70092000D01*
X151743000Y-56292936D02*
X151825000Y-56210936D01*
X149738632Y-70043489D02*
X149787143Y-70092000D01*
X144504000Y-104416000D02*
X144504000Y-91090936D01*
X145613020Y-89981916D02*
X148136084Y-89981916D01*
X151743000Y-63080000D02*
X151743000Y-56292936D01*
X153929000Y-67696000D02*
X153929000Y-65266000D01*
X147833000Y-72448936D02*
X147833000Y-70851857D01*
X153421000Y-70092000D02*
X153929000Y-69584000D01*
X153929000Y-65266000D02*
X151743000Y-63080000D01*
X150600000Y-87518000D02*
X150600000Y-75215936D01*
%TO.N,SDMMC1_D0*%
X150725000Y-62218000D02*
X150725000Y-53119936D01*
X150269500Y-62673500D02*
X150269500Y-63886000D01*
X150725000Y-53119936D02*
X150727000Y-53117936D01*
X150725000Y-51160000D02*
X150725000Y-62218000D01*
X150725000Y-62218000D02*
X150269500Y-62673500D01*
%TO.N,SDMMC1_CMD*%
X137795000Y-106045000D02*
X132566000Y-100816000D01*
X146325000Y-56122936D02*
X146282000Y-56165936D01*
X132566000Y-100816000D02*
X132566000Y-79152936D01*
X132566000Y-79152936D02*
X143742000Y-67976936D01*
X145754000Y-67696000D02*
X144022936Y-67696000D01*
X146325000Y-51160000D02*
X146325000Y-56122936D01*
X144022936Y-67696000D02*
X143742000Y-67976936D01*
%TO.N,SDMMC1_CK*%
X148525000Y-50153936D02*
X148525000Y-51160000D01*
X132058000Y-67626022D02*
X141499511Y-58184511D01*
X132058000Y-102848000D02*
X132058000Y-67626022D01*
X143400489Y-50085489D02*
X148456553Y-50085489D01*
X141499511Y-51986467D02*
X143400489Y-50085489D01*
X141499511Y-58184511D02*
X141499511Y-51986467D01*
X135255000Y-106045000D02*
X132058000Y-102848000D01*
X148456553Y-50085489D02*
X148525000Y-50153936D01*
%TO.N,OLED_CS*%
X127005000Y-83243936D02*
X127005000Y-55250000D01*
X132715000Y-106045000D02*
X131550000Y-104880000D01*
X131550000Y-104880000D02*
X131550000Y-87788936D01*
X131550000Y-87788936D02*
X127005000Y-83243936D01*
%TO.N,OLED_SCK*%
X130974999Y-105245001D02*
X130974999Y-88228499D01*
X125518218Y-82771718D02*
X125639511Y-82650425D01*
X125639511Y-82650425D02*
X125639511Y-54763501D01*
X118088064Y-54006936D02*
X116845000Y-55250000D01*
X124882946Y-54006936D02*
X118088064Y-54006936D01*
X125639511Y-54763501D02*
X124882946Y-54006936D01*
X130175000Y-106045000D02*
X130974999Y-105245001D01*
X130974999Y-88228499D02*
X125518218Y-82771718D01*
%TO.N,OLED_CMD_MISO*%
X130348520Y-103331480D02*
X130348520Y-88237738D01*
X124465000Y-82354218D02*
X124465000Y-55250000D01*
X127635000Y-106045000D02*
X130348520Y-103331480D01*
X130348520Y-88237738D02*
X124465000Y-82354218D01*
%TO.N,OLED_DATA_MOSI*%
X129765480Y-101374520D02*
X129765480Y-89372027D01*
X119385000Y-77909936D02*
X119385000Y-55250000D01*
X129899000Y-89238507D02*
X129899000Y-88423936D01*
X129899000Y-88423936D02*
X119385000Y-77909936D01*
X129765480Y-89372027D02*
X129899000Y-89238507D01*
X125095000Y-106045000D02*
X129765480Y-101374520D01*
%TO.N,ENC_B*%
X134534500Y-87979436D02*
X147078564Y-87979436D01*
X147078564Y-87979436D02*
X149190000Y-85868000D01*
%TO.N,ENC_A*%
X144190000Y-85868000D02*
X134613936Y-85868000D01*
X134613936Y-85868000D02*
X134344000Y-86137936D01*
%TO.N,AUDIO_IN_L*%
X112395000Y-111034936D02*
X112395000Y-106045000D01*
X103359511Y-126299511D02*
X103359511Y-120070425D01*
X103359511Y-120070425D02*
X112395000Y-111034936D01*
X104780000Y-127720000D02*
X103359511Y-126299511D01*
%TO.N,AUDIO_IN_R*%
X107665291Y-126396936D02*
X106190489Y-124922134D01*
X106190489Y-119906447D02*
X113519511Y-112577425D01*
X111093064Y-104806936D02*
X109855000Y-106045000D01*
X113135000Y-104806936D02*
X111093064Y-104806936D01*
X106190489Y-124922134D02*
X106190489Y-119906447D01*
X133786436Y-126396936D02*
X107665291Y-126396936D01*
X135260000Y-127870500D02*
X133786436Y-126396936D01*
X113519511Y-112577425D02*
X113519511Y-105191447D01*
X113519511Y-105191447D02*
X113135000Y-104806936D01*
%TO.N,AUDIO_OUT_L*%
X100335000Y-92357500D02*
X100335000Y-92080000D01*
X103510000Y-95532500D02*
X100335000Y-92357500D01*
%TO.N,AUDIO_OUT_R*%
X127359000Y-101631936D02*
X128629000Y-100361936D01*
X128629000Y-100361936D02*
X128629000Y-99623436D01*
X109188064Y-101631936D02*
X127359000Y-101631936D01*
X104775000Y-106045000D02*
X109188064Y-101631936D01*
%TO.N,ADC1_GATE_IN*%
X201898350Y-135950416D02*
X206270934Y-140323000D01*
X175972416Y-135950416D02*
X201898350Y-135950416D01*
X206270934Y-140323000D02*
X218445000Y-140323000D01*
X226065000Y-113058500D02*
X226065000Y-115558000D01*
X175191040Y-135169040D02*
X175972416Y-135950416D01*
X159390000Y-134608000D02*
X159951040Y-135169040D01*
X159951040Y-135169040D02*
X175191040Y-135169040D01*
%TO.N,SAI2_MCLK*%
X131422282Y-122459936D02*
X128809936Y-122459936D01*
X148694282Y-139731936D02*
X131422282Y-122459936D01*
X166629000Y-138746072D02*
X165643136Y-139731936D01*
X165643136Y-139731936D02*
X148694282Y-139731936D01*
X166629000Y-138370000D02*
X166629000Y-138746072D01*
X128809936Y-122459936D02*
X127635000Y-121285000D01*
%TO.N,SAI2_SD_A*%
X162819000Y-138370000D02*
X147968064Y-138370000D01*
X147968064Y-138370000D02*
X132715000Y-123116936D01*
X132715000Y-123116936D02*
X132715000Y-121285000D01*
%TO.N,SAI2_FS_A*%
X163980488Y-136615416D02*
X147484916Y-136615416D01*
X165359000Y-138370000D02*
X165359000Y-137993928D01*
X165359000Y-137993928D02*
X163980488Y-136615416D01*
X138260789Y-120160489D02*
X136379511Y-120160489D01*
X147484916Y-136615416D02*
X138919511Y-128050011D01*
X136379511Y-120160489D02*
X135255000Y-121285000D01*
X138919511Y-120819211D02*
X138260789Y-120160489D01*
X138919511Y-128050011D02*
X138919511Y-120819211D01*
%TO.N,SAI2_SCK_A*%
X147298718Y-137064936D02*
X137795000Y-127561218D01*
X163160008Y-137064936D02*
X147298718Y-137064936D01*
X137795000Y-127561218D02*
X137795000Y-121285000D01*
X164089000Y-137993928D02*
X163160008Y-137064936D01*
X164089000Y-138370000D02*
X164089000Y-137993928D01*
%TO.N,OLED_RST*%
X121925000Y-55250000D02*
X121925000Y-77585000D01*
X121925000Y-77585000D02*
X122687000Y-78347000D01*
%TO.N,Net-(J5-PadT)*%
X181987500Y-114464000D02*
X187203000Y-114464000D01*
X181257500Y-115194000D02*
X181987500Y-114464000D01*
%TO.N,Net-(J6-PadT)*%
X204117500Y-114940000D02*
X204593500Y-114464000D01*
X204593500Y-114464000D02*
X210063000Y-114464000D01*
%TO.N,Net-(J7-PadT)*%
X172591500Y-61378000D02*
X179329000Y-61378000D01*
X172471000Y-61257500D02*
X172591500Y-61378000D01*
%TO.N,Net-(J8-PadT)*%
X186695000Y-61257500D02*
X186828500Y-61124000D01*
X186828500Y-61124000D02*
X193553000Y-61124000D01*
%TO.N,Net-(J9-PadT)*%
X201156000Y-61124000D02*
X207777000Y-61124000D01*
X200919000Y-61361000D02*
X201156000Y-61124000D01*
%TO.N,Net-(J10-PadT)*%
X215530500Y-61124000D02*
X222001000Y-61124000D01*
X215143000Y-61511500D02*
X215530500Y-61124000D01*
%TO.N,Net-(J11-PadT)*%
X185704500Y-98716000D02*
X177297000Y-98716000D01*
X185909500Y-98921000D02*
X185704500Y-98716000D01*
%TO.N,Net-(L1-Pad2)*%
X84460000Y-134417500D02*
X92072500Y-134417500D01*
X92072500Y-134417500D02*
X94010000Y-132480000D01*
%TO.N,Net-(Q1-Pad1)*%
X223199000Y-103049000D02*
X226319000Y-103049000D01*
X223205000Y-103118000D02*
X223167500Y-103080500D01*
X223167500Y-103080500D02*
X223199000Y-103049000D01*
X223205000Y-106207000D02*
X223205000Y-103118000D01*
%TO.N,Net-(Q1-Pad3)*%
X226065000Y-111233500D02*
X221493000Y-111233500D01*
X221493000Y-111233500D02*
X221493000Y-108844000D01*
X221493000Y-108844000D02*
X222255000Y-108082000D01*
%TO.N,DAC_AUDIO_R*%
X169042000Y-131007000D02*
X166629000Y-133420000D01*
X169042000Y-130584500D02*
X169042000Y-131007000D01*
%TO.N,DAC_AUDIO_L*%
X160001500Y-125100000D02*
X160001500Y-130602500D01*
X160001500Y-130602500D02*
X162819000Y-133420000D01*
%TO.N,Net-(C15-Pad2)*%
X109290000Y-127682500D02*
X113632500Y-127682500D01*
X108240480Y-128732020D02*
X109290000Y-127682500D01*
X108240480Y-130607480D02*
X108240480Y-128732020D01*
X109163000Y-131530000D02*
X108240480Y-130607480D01*
X116355000Y-127720000D02*
X117545000Y-128910000D01*
X113632500Y-127682500D02*
X113670000Y-127720000D01*
X113670000Y-127720000D02*
X116355000Y-127720000D01*
%TO.N,Net-(C16-Pad2)*%
X126370000Y-137061500D02*
X123026500Y-137061500D01*
X126370000Y-137061500D02*
X130777500Y-137061500D01*
X130815000Y-137099000D02*
X135222500Y-137099000D01*
X123026500Y-137061500D02*
X122495000Y-136530000D01*
X130777500Y-137061500D02*
X130815000Y-137099000D01*
X135222500Y-137099000D02*
X135260000Y-137061500D01*
%TO.N,Net-(C17-Pad2)*%
X104780000Y-132819500D02*
X109163000Y-137202500D01*
X116910000Y-137165000D02*
X117545000Y-136530000D01*
X104780000Y-129545000D02*
X104780000Y-132819500D01*
X109163000Y-137202500D02*
X113697500Y-137202500D01*
X113735000Y-137165000D02*
X116910000Y-137165000D01*
X113697500Y-137202500D02*
X113735000Y-137165000D01*
%TO.N,Net-(C18-Pad2)*%
X125330500Y-128910000D02*
X126370000Y-127870500D01*
X122495000Y-128910000D02*
X125330500Y-128910000D01*
X130777500Y-127870500D02*
X130815000Y-127833000D01*
X130815000Y-127833000D02*
X133397500Y-127833000D01*
X126370000Y-127870500D02*
X130777500Y-127870500D01*
X133397500Y-127833000D02*
X135260000Y-129695500D01*
%TO.N,Net-(C25-Pad1)*%
X162281000Y-80644361D02*
X161318500Y-81606861D01*
X176892500Y-66680000D02*
X166986564Y-76585936D01*
X161318500Y-87978500D02*
X161356000Y-88016000D01*
X165133322Y-78444960D02*
X163104679Y-78444960D01*
X176892500Y-66680000D02*
X176068500Y-66680000D01*
X176068500Y-66680000D02*
X172471000Y-63082500D01*
X166986564Y-76585936D02*
X166986564Y-76591718D01*
X162281000Y-79956500D02*
X162281000Y-80644361D01*
X161318500Y-83444000D02*
X161318500Y-87978500D01*
X161356000Y-88016000D02*
X163049500Y-88016000D01*
X166986564Y-76591718D02*
X165133322Y-78444960D01*
X163104679Y-78444960D02*
X162281000Y-79268639D01*
X162281000Y-79268639D02*
X162281000Y-79956500D01*
X161318500Y-81606861D02*
X161318500Y-83444000D01*
%TO.N,Net-(C26-Pad1)*%
X165192520Y-78894480D02*
X164881000Y-79206000D01*
X191624500Y-67188000D02*
X187543989Y-71268511D01*
X165319520Y-78894480D02*
X165192520Y-78894480D01*
X164928537Y-91105889D02*
X166948389Y-91105889D01*
X187543989Y-71268511D02*
X172945489Y-71268511D01*
X164928537Y-89655463D02*
X164928537Y-91105889D01*
X172945489Y-71268511D02*
X165319520Y-78894480D01*
X166455000Y-87903000D02*
X166568000Y-88016000D01*
X191624500Y-67188000D02*
X190800500Y-67188000D01*
X166455000Y-83444000D02*
X166455000Y-87903000D01*
X166948389Y-91105889D02*
X168430500Y-92588000D01*
X164881000Y-81870000D02*
X166455000Y-83444000D01*
X164881000Y-79956500D02*
X164881000Y-81870000D01*
X164881000Y-79206000D02*
X164881000Y-79956500D01*
X190800500Y-67188000D02*
X186695000Y-63082500D01*
X166568000Y-88016000D02*
X164928537Y-89655463D01*
%TO.N,Net-(C41-Pad1)*%
X179122489Y-86076489D02*
X187823000Y-94777000D01*
X142218000Y-91876436D02*
X139891564Y-91876436D01*
X133898000Y-93796436D02*
X133963000Y-93861436D01*
X187734500Y-98921000D02*
X187734500Y-94865500D01*
X152757500Y-88515000D02*
X154027500Y-87245000D01*
X139891564Y-91876436D02*
X138620500Y-91876436D01*
X133935500Y-92153936D02*
X133898000Y-92191436D01*
X133898000Y-92191436D02*
X133898000Y-93796436D01*
X176007489Y-86076489D02*
X179122489Y-86076489D01*
X138620500Y-91876436D02*
X138343000Y-92153936D01*
X187734500Y-94865500D02*
X187823000Y-94777000D01*
X147677500Y-89150000D02*
X148312500Y-88515000D01*
X140692500Y-89150000D02*
X147677500Y-89150000D01*
X138343000Y-92153936D02*
X133935500Y-92153936D01*
X166092500Y-89785000D02*
X172298978Y-89785000D01*
X154027500Y-87245000D02*
X155932500Y-87245000D01*
X172298978Y-89785000D02*
X176007489Y-86076489D01*
%TO.N,Net-(C42-Pad1)*%
X159763507Y-91428000D02*
X159390000Y-91428000D01*
X164037480Y-93535480D02*
X162565000Y-92063000D01*
X208943500Y-95367000D02*
X208920000Y-95343500D01*
X155488000Y-95403936D02*
X155488000Y-98321000D01*
X155580000Y-98413000D02*
X155488000Y-98321000D01*
X151043000Y-95328936D02*
X155413000Y-95328936D01*
X208838888Y-95424612D02*
X192858388Y-95424612D01*
X192858388Y-95424612D02*
X188177489Y-100105511D01*
X160398507Y-92063000D02*
X159763507Y-91428000D01*
X208943500Y-98811000D02*
X208943500Y-95367000D01*
X188177489Y-100105511D02*
X172697721Y-100105511D01*
X147168000Y-93146436D02*
X148860500Y-93146436D01*
X165422859Y-94285141D02*
X164673197Y-93535480D01*
X155413000Y-95328936D02*
X155488000Y-95403936D01*
X155488000Y-95403936D02*
X156537520Y-94354416D01*
X166877351Y-94285141D02*
X165422859Y-94285141D01*
X208920000Y-95343500D02*
X208838888Y-95424612D01*
X156537520Y-92503456D02*
X155553000Y-91518936D01*
X156537520Y-94354416D02*
X156537520Y-92503456D01*
X172697721Y-100105511D02*
X166877351Y-94285141D01*
X148860500Y-93146436D02*
X151043000Y-95328936D01*
X164673197Y-93535480D02*
X164037480Y-93535480D01*
X162565000Y-92063000D02*
X160398507Y-92063000D01*
%TO.N,Net-(J16-PadT)*%
X223303000Y-98208000D02*
X226319000Y-101224000D01*
X220223000Y-98654000D02*
X220669000Y-98208000D01*
X220669000Y-98208000D02*
X223303000Y-98208000D01*
%TO.N,Net-(J17-PadT)*%
X207118500Y-98811000D02*
X207023500Y-98716000D01*
X207023500Y-98716000D02*
X198379000Y-98716000D01*
D55*
%TO.N,Net-(J18-Pad1)*%
X82340000Y-70021000D02*
X82340000Y-56980000D01*
D53*
X82340000Y-50980000D02*
X82340000Y-56980000D01*
D55*
X82809000Y-83444000D02*
X89159000Y-83444000D01*
X89159000Y-76840000D02*
X82340000Y-70021000D01*
X80015000Y-80650000D02*
X82809000Y-83444000D01*
X89159000Y-83444000D02*
X89159000Y-76840000D01*
%TO.N,Net-(J18-Pad2)*%
X71340000Y-66875000D02*
X85115000Y-80650000D01*
X71340000Y-56980000D02*
X71340000Y-66875000D01*
D53*
%TO.N,Net-(R20-Pad2)*%
X178717500Y-66680000D02*
X178861000Y-66823500D01*
X178861000Y-66823500D02*
X178861000Y-70044000D01*
%TO.N,Net-(R23-Pad2)*%
X193449500Y-67188000D02*
X193339000Y-67298500D01*
X193339000Y-67298500D02*
X193339000Y-70044000D01*
%TO.N,Net-(R26-Pad2)*%
X207817000Y-66536500D02*
X207817000Y-70044000D01*
X207927500Y-66426000D02*
X207817000Y-66536500D01*
%TO.N,Net-(R29-Pad2)*%
X222048000Y-66426000D02*
X222295000Y-66673000D01*
X222295000Y-66673000D02*
X222295000Y-70044000D01*
%TO.N,Net-(R56-Pad2)*%
X187823000Y-92952000D02*
X187823000Y-89712000D01*
%TO.N,Net-(R63-Pad2)*%
X208920000Y-93518500D02*
X208905000Y-93503500D01*
X208905000Y-93503500D02*
X208905000Y-89712000D01*
D54*
%TO.N,VEE*%
X82555000Y-138435000D02*
X78010000Y-133890000D01*
D53*
X82555000Y-138435000D02*
X82555000Y-140975000D01*
D54*
X78010000Y-133890000D02*
X74935000Y-133890000D01*
%TO.N,VCC*%
X72395000Y-138435000D02*
X72395000Y-133890000D01*
D53*
X72395000Y-138435000D02*
X72395000Y-140975000D01*
%TD*%
M02*
